<svg version="1.1" xmlns:cc="http://creativecommons.org/ns#" xmlns:dc="http://purl.org/dc/elements/1.1/" xmlns:rdf="http://www.w3.org/1999/02/22-rdf-syntax-ns#" xmlns="http://www.w3.org/2000/svg" xmlns:xlink="http://www.w3.org/1999/xlink" x="0px" y="0px" viewBox="0 0 1024 768" xml:space="preserve">
<style>
#c1 {
	transform: scale(0);
	opacity: 0;
	transform-origin: 50% 50%;
	animation: pulse 4s cubic-bezier(.5,.5,0,1) infinite;	
}

#c2 {
	transform: scale(0);
	opacity: 0;
	transform-origin: 50% 50%;
	animation: pulse 4s 0.75s cubic-bezier(.5,.5,0,1) infinite;
}

#c3 {
	transform: scale(0);
	opacity: 0;
	transform-origin: 50% 50%;
	animation: pulse 4s 1.5s cubic-bezier(.5,.5,0,1) infinite;
}

@keyframes pulse {
	
	12% {
		opacity: 0.3;
	}
	
	50% {
		transform: scale(1);
	}
	
	100% {
		transform: scale(1);
	}
	
}
</style>
<defs>
<clipPath id="clip-path">
  <rect id="clip" width="1024" height="100" x="0" y="0" /> 
</clipPath>
</defs>

<circle id="c1" cx="512" cy="384" r="370" stroke="#c2846a" stroke-width="10" fill="none"></circle>
<circle id="c2" cx="512" cy="384" r="370" stroke="#caa380" stroke-width="10" fill="none"></circle>
<circle id="c3" cx="512" cy="384" r="370" stroke="#d2c296" stroke-width="10" fill="none"></circle>

<g id="fade">

 
 <defs id="defs89401">
  <linearGradient id="c3e4b12e-7edb-43a8-aeb6-c0c6e504bf64" y2="117.89" gradientUnits="userSpaceOnUse" x2="105.57" y1="117.89" x1="79.189">
   <stop id="stop206" stop-color="#fff" stop-opacity=".5" offset="0"/>
   <stop id="stop208" stop-color="#fff" stop-opacity=".49309" offset=".01383"/>
   <stop id="stop210" stop-color="#fff" stop-opacity="0" offset="1"/>
  </linearGradient>
  <linearGradient id="7828c463-2fb0-44ce-bb64-9088ea2c85d3" y2="104.62" gradientUnits="userSpaceOnUse" x2="220.61" gradientTransform="rotate(180 157.52 92.683)" y1="104.62" x1="194.23">
   <stop id="stop215" stop-color="#fff" stop-opacity="0" offset="0"/>
   <stop id="stop217" stop-color="#fff" stop-opacity=".49309" offset=".98617"/>
   <stop id="stop219" stop-color="#fff" stop-opacity=".5" offset="1"/>
  </linearGradient>
  <linearGradient id="0f68ea85-798c-4ded-bb1f-ebe60617570d" y2="115.66" gradientUnits="userSpaceOnUse" x2="115.51" y1="101.93" x1="115.51">
   <stop id="stop224" stop-opacity=".4" offset="0"/>
   <stop id="stop226" stop-color="#0F0D0D" stop-opacity=".28962" offset=".27595"/>
   <stop id="stop228" stop-color="#1E1A1B" stop-opacity=".13006" offset=".67484"/>
   <stop id="stop230" stop-color="#231F20" stop-opacity="0" offset="1"/>
  </linearGradient>
  <linearGradient id="b4e39e90-a76f-40a8-b457-f139094e889c" y2="97.493" gradientUnits="userSpaceOnUse" x2="84.457" y1="79.054" x1="84.969">
   <stop id="stop235" stop-opacity=".4" offset="0"/>
   <stop id="stop237" stop-color="#0F0D0D" stop-opacity=".28962" offset=".27595"/>
   <stop id="stop239" stop-color="#1E1A1B" stop-opacity=".13006" offset=".67484"/>
   <stop id="stop241" stop-color="#231F20" stop-opacity="0" offset="1"/>
  </linearGradient>
  <linearGradient id="d45ee697-f8fe-4332-bbb7-28742d4f2050" y2="86.726" gradientUnits="userSpaceOnUse" x2="113.84" gradientTransform="matrix(1 0 0 -1 -.00018 185.37)" y1="86.726" x1="86.254">
   <stop id="stop246" stop-opacity=".4" offset="0"/>
   <stop id="stop248" stop-color="#0F0D0D" stop-opacity=".28962" offset=".27595"/>
   <stop id="stop250" stop-color="#1E1A1B" stop-opacity=".13006" offset=".67484"/>
   <stop id="stop252" stop-color="#231F20" stop-opacity="0" offset="1"/>
  </linearGradient>
  <linearGradient id="fa5149c9-ce61-4f4f-8d04-69e9a5a9fbc2" y2="86.726" gradientUnits="userSpaceOnUse" x2="113.84" gradientTransform="matrix(1 0 0 -1 -.00018 185.37)" y1="86.726" x1="86.254">
   <stop id="stop257" stop-color="#fff" stop-opacity="0" offset="0"/>
   <stop id="stop259" stop-color="#fff" stop-opacity=".49309" offset=".98617"/>
   <stop id="stop261" stop-color="#fff" stop-opacity=".5" offset="1"/>
  </linearGradient>
  <linearGradient id="b86f1446-9a15-4f5b-8c39-529aa1e3c4ff" y2="117.89" gradientUnits="userSpaceOnUse" x2="89.397" gradientTransform="matrix(1.67 0 0 1.67 568.74 194.74)" y1="117.89" x1="119.57">
   <stop id="stop266" stop-opacity=".4" offset="0"/>
   <stop id="stop268" stop-color="#0F0D0D" stop-opacity=".28962" offset=".27595"/>
   <stop id="stop270" stop-color="#1E1A1B" stop-opacity=".13006" offset=".67484"/>
   <stop id="stop272" stop-color="#231F20" stop-opacity="0" offset="1"/>
  </linearGradient>
  <linearGradient id="0d3f4036-cd01-423f-aaf9-b530b57646f4" y2="114.02" gradientUnits="userSpaceOnUse" x2="79.374" y1="97.84" x1="91.554">
   <stop id="stop150" stop-opacity=".4" offset="0"/>
   <stop id="stop152" stop-color="#0F0D0D" stop-opacity=".28962" offset=".27595"/>
   <stop id="stop154" stop-color="#1E1A1B" stop-opacity=".13006" offset=".67484"/>
   <stop id="stop156" stop-color="#231F20" stop-opacity="0" offset="1"/>
  </linearGradient>
  <linearGradient id="5cddbf7c-bb29-4766-9cba-9525df1043be" y2="93.082" gradientUnits="userSpaceOnUse" x2="116.55" y1="123.78" x1="116.55">
   <stop id="stop161" stop-color="#fff" stop-opacity="0" offset="0"/>
   <stop id="stop163" stop-color="#fff" stop-opacity=".49309" offset=".98617"/>
   <stop id="stop165" stop-color="#fff" stop-opacity=".5" offset="1"/>
  </linearGradient>
  <linearGradient id="0b0bc532-f2e7-45c3-870f-fdf25088b1b0" y2="99.313" gradientUnits="userSpaceOnUse" x2="117.36" y1="99.313" x1="84.258">
   <stop id="stop170" stop-color="#231F20" stop-opacity="0" offset="0"/>
   <stop id="stop172" stop-color="#1E1A1B" stop-opacity=".13006" offset=".32516"/>
   <stop id="stop174" stop-color="#0F0D0D" stop-opacity=".28962" offset=".72405"/>
   <stop id="stop176" stop-opacity=".4" offset="1"/>
  </linearGradient>
  <linearGradient id="eac99df0-d2c8-44aa-88e4-1c0ad7027220" y2="73.65" gradientUnits="userSpaceOnUse" x2="83.451" gradientTransform="matrix(1.67 0 0 1.67 395.8 194.77)" y1="101.33" x1="83.451">
   <stop id="stop181" stop-opacity=".4" offset="0"/>
   <stop id="stop183" stop-color="#0F0D0D" stop-opacity=".28962" offset=".27595"/>
   <stop id="stop185" stop-color="#1E1A1B" stop-opacity=".13006" offset=".67484"/>
   <stop id="stop187" stop-color="#231F20" stop-opacity="0" offset="1"/>
  </linearGradient>
  <linearGradient id="423604a1-85dd-4ab6-9f08-2258bd909e2f" y2="86.835" gradientUnits="userSpaceOnUse" x2="119.77" y1="100.61" x1="105.83">
   <stop id="stop192" stop-opacity=".4" offset="0"/>
   <stop id="stop194" stop-color="#0F0D0D" stop-opacity=".28962" offset=".27595"/>
   <stop id="stop196" stop-color="#1E1A1B" stop-opacity=".13006" offset=".67484"/>
   <stop id="stop198" stop-color="#231F20" stop-opacity="0" offset="1"/>
  </linearGradient>
  <linearGradient id="16a7bedb-2bd7-4335-9ffd-71e5a300f5f9" y2="80.729" gradientUnits="userSpaceOnUse" x2="79.028" y1="80.729" x1="98.757">
   <stop id="stop116" stop-opacity=".4" offset=".25563"/>
   <stop id="stop118" stop-color="#0F0D0D" stop-opacity=".28962" offset=".46104"/>
   <stop id="stop120" stop-color="#1E1A1B" stop-opacity=".13006" offset=".75796"/>
   <stop id="stop122" stop-color="#231F20" stop-opacity="0" offset="1"/>
  </linearGradient>
  <linearGradient id="f3712b5e-b318-47cb-9334-4f3efd8baa01" y2="124.55" gradientUnits="userSpaceOnUse" x2="100" y1="76.362" x1="100">
   <stop id="stop127" stop-color="#fff" stop-opacity=".5" offset="0"/>
   <stop id="stop129" stop-color="#fff" stop-opacity=".49309" offset=".01383"/>
   <stop id="stop131" stop-color="#fff" stop-opacity="0" offset="1"/>
  </linearGradient>
  <linearGradient id="ff0bda64-1db7-4f94-b8ab-dd3f9420d27b" y2="79.824" gradientUnits="userSpaceOnUse" x2="108.28" y1="88.587" x1="98.223">
   <stop id="stop136" stop-opacity=".4" offset=".25563"/>
   <stop id="stop138" stop-color="#0F0D0D" stop-opacity=".28962" offset=".46104"/>
   <stop id="stop140" stop-color="#1E1A1B" stop-opacity=".13006" offset=".75796"/>
   <stop id="stop142" stop-color="#231F20" stop-opacity="0" offset="1"/>
  </linearGradient>
  <linearGradient id="10cb8b26-7f45-4b83-9f48-64cf427fbce3" y2="71.215" gradientUnits="userSpaceOnUse" x2="119.66" y1="104.52" x1="101.6">
   <stop id="stop83" stop-color="#fff" stop-opacity="0" offset=".31657"/>
   <stop id="stop85" stop-color="#fff" stop-opacity=".5" offset="1"/>
  </linearGradient>
  <linearGradient id="ba741db9-ddaf-4a57-84ed-db2e1d916f43" y2="71.215" gradientUnits="userSpaceOnUse" x2="119.66" y1="104.52" x1="101.6">
   <stop id="stop90" stop-color="#231F20" stop-opacity=".3" offset="0"/>
   <stop id="stop92" stop-color="#231F20" stop-opacity="0" offset=".77499"/>
  </linearGradient>
  <linearGradient id="78b6c3fd-c5be-46cc-89e9-8af93a4db9d3" y2="107.8" gradientUnits="userSpaceOnUse" x2="100" gradientTransform="matrix(1.67 0 0 1.67 228.07 194.77)" y1="124.53" x1="100">
   <stop id="stop97" stop-color="#231F20" stop-opacity=".3" offset="0"/>
   <stop id="stop99" stop-color="#231F20" stop-opacity="0" offset=".7933"/>
  </linearGradient>
  <linearGradient id="ccbc0e96-0100-407f-a327-09f698b13b27" y2="70.767" gradientUnits="userSpaceOnUse" x2="79.995" y1="104.42" x1="98.418">
   <stop id="stop104" stop-color="#231F20" stop-opacity=".65" offset="0"/>
   <stop id="stop106" stop-color="#231F20" stop-opacity=".64101" offset=".01048"/>
   <stop id="stop108" stop-color="#231F20" stop-opacity="0" offset=".75791"/>
  </linearGradient>
  <linearGradient id="82f0a0e0-06d4-4154-a4b3-0d5f50a91e45" y2="113.71" gradientUnits="userSpaceOnUse" x2="102.1" y1="74.82" x1="80.947">
   <stop id="stop40" stop-color="#fff" stop-opacity=".5" offset="0"/>
   <stop id="stop42" stop-color="#fff" stop-opacity=".49309" offset=".01383"/>
   <stop id="stop44" stop-color="#fff" stop-opacity="0" offset="1"/>
  </linearGradient>
  <linearGradient id="608b7779-318c-4535-bf14-d1be891616f6" y2="122.74" gradientUnits="userSpaceOnUse" x2="120.9" y1="73.905" x1="120.9">
   <stop id="stop49" stop-color="#fff" stop-opacity=".5" offset="0"/>
   <stop id="stop51" stop-color="#fff" stop-opacity=".49309" offset=".01383"/>
   <stop id="stop53" stop-color="#fff" stop-opacity="0" offset="1"/>
  </linearGradient>
  <linearGradient id="f04d76d0-954e-4eba-80ef-22d1b2cf81ab" y2="116.05" gradientUnits="userSpaceOnUse" x2="95.422" y1="76.817" x1="118.67">
   <stop id="stop58" stop-opacity=".4" offset="0"/>
   <stop id="stop60" stop-color="#0F0D0D" stop-opacity=".28962" offset=".27595"/>
   <stop id="stop62" stop-color="#1E1A1B" stop-opacity=".13006" offset=".67484"/>
   <stop id="stop64" stop-color="#231F20" stop-opacity="0" offset="1"/>
  </linearGradient>
  <linearGradient id="9b8a098e-46c9-4570-b2ae-1fc90fb5fca5" y2="123.41" gradientUnits="userSpaceOnUse" x2="79.103" y1="74.344" x1="79.103">
   <stop id="stop69" stop-opacity=".4" offset="0"/>
   <stop id="stop71" stop-color="#0F0D0D" stop-opacity=".28962" offset=".27595"/>
   <stop id="stop73" stop-color="#1E1A1B" stop-opacity=".13006" offset=".67484"/>
   <stop id="stop75" stop-color="#231F20" stop-opacity="0" offset="1"/>
  </linearGradient>
 </defs>
 <g id="logo-group" transform="translate(-2.6535 16.077) scale(1)">
  <g id="container-group" transform="translate(130.4 -11.6) scale(3.816)">
   <path id="container" d="m99.86 26.87c-0.38364 0.0044-1.0975 0.02947-1.5868 0.05504-0.48928 0.02558-2.0405 0.10953-3.4472 0.1857-2.2752 0.12399-2.7205 0.16402-4.031 0.36307-0.81009 0.12288-2.1111 0.31192-2.8912 0.41922-0.77951 0.10786-1.7114 0.24575-2.07 0.30636-0.35862 0.0606-1.2471 0.23686-1.9738 0.39087-0.72669 0.15457-1.8976 0.42701-2.6021 0.60548-0.70445 0.17848-1.728 0.45314-2.2752 0.61049-0.54655 0.15679-1.5713 0.47482-2.2774 0.70668-0.70612 0.23185-1.7464 0.58992-2.3124 0.79619-0.56545 0.20628-1.554 0.58769-2.1962 0.84734-0.64218 0.25965-1.668 0.69333-2.2796 0.96355s-1.9755 0.9224-3.0302 1.45c-1.0547 0.52764-2.4064 1.2315-3.0024 1.5651-0.59603 0.33304-1.8598 1.0753-2.8078 1.6491-0.94798 0.57379-1.9221 1.1815-2.1645 1.3511-0.24242 0.16958-1.5779 1.1815-2.9674 2.2485l-2.5276 1.9404-2.4531 2.3519c-1.3489 1.2938-2.6799 2.6126-2.9568 2.9307-0.27689 0.31803-0.83789 0.99079-1.2471 1.4956-0.40866 0.50429-0.87014 1.072-1.0253 1.2605-0.15512 0.18848-0.31136 0.3386-0.34694 0.3336s-0.32359 0.27967-0.6394 0.63273-0.70112 0.79119-0.85568 0.973c-0.15512 0.18181-0.79452 1.0064-1.4211 1.832-0.62661 0.82566-1.5651 2.0639-2.0856 2.7522-0.54933 0.72669-1.1682 1.6235-1.4762 2.1406-0.2919 0.48928-0.63829 1.077-0.77006 1.3066-0.13233 0.22907-0.30747 0.50429-0.39031 0.6116-0.08229 0.10731-0.55266 0.93241-1.0442 1.8348-0.51708 0.94798-1.2805 2.4736-1.8087 3.614-0.50262 1.0853-1.0759 2.3113-1.2732 2.7244-0.19794 0.41311-0.52486 1.1637-0.72669 1.668-0.20238 0.50429-0.7089 1.8431-1.1265 2.9746-0.41756 1.1315-0.90406 2.4825-1.082 3.0024-0.19794 0.58046-0.61382 2.1072-1.0775 3.9576-0.45203 1.8037-0.82121 3.4094-0.92018 4.0032-0.09118 0.54488-0.24019 1.5785-0.33082 2.2974-0.09063 0.71835-0.25354 2.1573-0.36196 3.197s-0.23408 2.403-0.27967 3.0302c-0.04559 0.62661-0.11176 1.9026-0.14678 2.8356-0.03725 0.99302-0.04893 2.4481-0.02836 3.51 0.01946 0.99802 0.0606 2.274 0.09063 2.8356 0.03058 0.56211 0.09396 1.509 0.14067 2.1056 0.04726 0.59603 0.1479 1.6469 0.22351 2.3352 0.07617 0.68777 0.2135 1.7764 0.30524 2.4186 0.09118 0.64218 0.22907 1.5301 0.3058 1.9738 0.07673 0.44313 0.22796 1.2566 0.33582 1.807 0.10786 0.55044 0.28356 1.3883 0.39087 1.8626 0.10675 0.47371 0.30691 1.3105 0.44424 1.8587 0.13789 0.54821 0.41311 1.5618 0.6116 2.2518 0.19905 0.68999 0.56045 1.8481 0.80342 2.5737 0.24242 0.72558 0.60771 1.7514 0.81065 2.2796s0.53042 1.3483 0.72725 1.8226c0.19738 0.47427 0.55934 1.2994 0.80509 1.8348 0.24631 0.53487 0.6066 1.291 0.8012 1.6797 0.1946 0.38808 0.34027 0.7417 0.32359 0.78451-0.01668 0.0434 0.23686 0.58825 0.56323 1.2121 0.32637 0.62328 0.81954 1.5457 1.0959 2.0505 0.27689 0.50429 0.73336 1.3177 1.0147 1.807 0.28189 0.48928 0.80731 1.3778 1.1676 1.9738 0.36084 0.59603 0.90517 1.4717 1.2099 1.946 0.30413 0.47427 0.84067 1.2844 1.1921 1.8009 0.35139 0.51597 0.86569 1.2543 1.1426 1.6402 0.27744 0.38531 0.76784 1.0514 1.0903 1.4795 0.32248 0.42812 0.92796 1.2037 1.345 1.7236 0.41756 0.51986 1.0175 1.2454 1.3333 1.6124 0.31636 0.36696 0.93853 1.0675 1.3833 1.5568 0.4448 0.48928 1.2844 1.3655 1.8659 1.9477 0.58158 0.58157 1.4879 1.4495 2.0149 1.9282 0.52709 0.47871 1.39 1.2304 1.9182 1.6708 0.5282 0.44035 1.3355 1.1003 1.7942 1.4667 0.4587 0.36696 1.2343 0.96689 1.7236 1.3338 0.48928 0.36696 1.152 0.85513 1.4734 1.0848 0.32137 0.22963 0.89683 0.63106 1.2788 0.89183 0.38253 0.26132 1.6085 1.0002 2.7244 1.6419 1.1164 0.64218 2.3296 1.3377 2.6966 1.5457 0.36696 0.2085 0.85513 0.46481 1.0842 0.5699 0.22963 0.10564 1.693 0.76172 3.2526 1.4584 1.5596 0.69612 3.0235 1.3344 3.2526 1.4178 0.22963 0.0829 0.95521 0.3336 1.6124 0.55656 0.65775 0.22351 1.996 0.69389 2.9746 1.0458 0.97856 0.35139 2.2546 0.76894 2.8356 0.9274 0.58102 0.15791 1.5696 0.4348 2.1962 0.61438 0.62717 0.18015 1.44 0.42924 1.807 0.55322 0.36696 0.12455 0.9174 0.29858 1.2232 0.38642 0.3058 0.0884 0.85624 0.21128 1.2232 0.27411 0.36696 0.0623 1.0303 0.16402 1.4734 0.22629 0.44369 0.0617 1.4945 0.19961 2.3352 0.3058 0.84123 0.1062 1.8543 0.2174 2.2518 0.24798 0.39754 0.0306 2.0989 0.0728 3.7808 0.0934 1.6819 0.0211 5.0724 0.0395 7.5338 0.04 3.7908 0.001 4.6165-0.0128 5.3932-0.0917 0.50485-0.0511 1.9432-0.21906 3.197-0.37308 1.2538-0.15401 2.5926-0.3436 2.9746-0.422 0.38253-0.0784 1.7748-0.41533 3.0941-0.74838 1.3194-0.33248 2.78-0.7189 3.2459-0.8579 0.46593-0.139 2.1862-0.77896 3.823-1.4217 1.6369-0.64329 3.2537-1.3083 3.5929-1.4778 0.33916-0.17014 1.6802-0.87181 2.9796-1.5596 1.2999-0.68778 2.4503-1.3027 2.5576-1.3666 0.10731-0.0634 0.58936-0.37308 1.0725-0.68777 0.48261-0.31526 1.8459-1.2282 3.0302-2.0288 1.1837-0.80064 2.9657-2.0438 3.9593-2.7616 0.99413-0.71835 2.1951-1.594 2.6688-1.9454 0.47427-0.35195 1.3133-1.0547 1.8648-1.5612 0.55156-0.50707 1.6647-1.5384 2.4742-2.2918 0.80898-0.75394 1.7725-1.7047 2.1406-2.1128 0.36808-0.40866 1.0208-1.1431 1.4512-1.6324 0.42979-0.48928 0.98802-1.1148 1.2404-1.39 0.25242-0.27522 0.75282-0.86347 1.112-1.3066 0.35918-0.44369 1.2332-1.5902 1.9421-2.5482 0.7089-0.95799 1.524-2.0516 1.8114-2.4292 0.28745-0.37808 0.64607-0.87014 0.79674-1.0936 0.15068-0.22352 0.50652-0.78174 0.79008-1.2404 0.28356-0.4587 1.047-1.6346 1.6958-2.6132 0.64941-0.97856 1.2788-1.9543 1.3989-2.1684 0.12009-0.21406 0.30302-0.60215 0.40643-0.8618 0.10342-0.26021 0.38475-0.91073 0.62606-1.4456 0.2413-0.53543 0.74837-1.5768 1.1276-2.3152 0.4448-0.86514 1.182-2.4842 2.0761-4.5592 1.0303-2.3897 1.4534-3.4389 1.6463-4.0788 0.14289-0.47427 0.4081-1.4239 0.58936-2.1106 0.18181-0.68721 0.33026-1.2682 0.33026-1.291 0-0.0233-0.0373-0.0278-0.0828-0.0106-0.0673 0.0261-0.0628-0.0139 0.0239-0.21017 0.0589-0.13288 0.1707-0.46037 0.24798-0.7278 0.0773-0.26688 0.17903-0.70501 0.22629-0.973 0.0467-0.268 0.11176-0.97467 0.14456-1.5702 0.0323-0.59603 0.0917-1.2727 0.13233-1.504 0.04-0.23074 0.12899-0.55044 0.19794-0.70945 0.0684-0.15958 0.15568-0.28968 0.1946-0.28968 0.0384 0 0.0851-0.0562 0.10341-0.1251 0.0183-0.0689 0.0339-0.32915 0.0345-0.57824 0-0.24909-0.05-0.79508-0.11231-1.2132-0.0656-0.44035-0.0973-0.84623-0.0762-0.96466 0.02-0.11231 0.0606-0.2502 0.089-0.30525 0.035-0.0678 0.03-0.12788-0.015-0.18181-0.0445-0.0539-0.0562-0.18793-0.0345-0.39976 0.0234-0.22463 0.0662-0.34528 0.14511-0.40977 0.0617-0.0495 0.13511-0.19182 0.16235-0.31526 0.04-0.17792 0.0295-0.27188-0.0534-0.45703-0.0578-0.12788-0.10453-0.33527-0.10453-0.45981 0-0.1668 0.0373-0.26632 0.139-0.37252 0.0901-0.094 0.15679-0.25131 0.19015-0.44758 0.0284-0.1668 0.0684-0.74115 0.0879-1.276 0.02-0.53543 0.0612-1.0886 0.0906-1.2304 0.0317-0.14734 0.11287-0.31191 0.19071-0.38475 0.11286-0.10675 0.13566-0.11231 0.13566-0.0345 0 0.0511 0.0222 0.0928 0.0489 0.0928s0.0801-0.0751 0.11787-0.1668c0.0378-0.0917 0.10064-0.1668 0.13956-0.1668 0.0389 0 0.0862 0.0395 0.10452 0.0879 0.0189 0.0484 0.0356 0.17959 0.0373 0.2919l0.004 0.20405 0.0562-0.139c0.0339-0.0834 0.0478-0.54877 0.0345-1.1676-0.0117-0.56601-0.0417-1.0725-0.0656-1.1259-0.0245-0.05338-0.0739-0.0973-0.11009-0.0973-0.0367 0-0.16402-0.10008-0.28356-0.2224-0.12732-0.13066-0.2691-0.2224-0.34361-0.2224-0.0817 0-0.15401 0.05393-0.20461 0.1529-0.0434 0.08396-0.10564 0.2502-0.13844 0.36918-0.0512 0.18682-0.0445 0.23575 0.0495 0.35529 0.0601 0.0762 0.10898 0.16291 0.10898 0.19237 0 0.0295-0.0712 0.15958-0.15846 0.28857-0.1251 0.1857-0.1718 0.34361-0.22462 0.75838-0.0367 0.28857-0.10509 0.67443-0.15179 0.85791s-0.17459 0.6205-0.28412 0.97078c-0.11398 0.36306-0.19793 0.74559-0.19571 0.8896 0.002 0.139 0.0217 0.55544 0.0434 0.92629 0.03 0.51097 0.0161 0.84735-0.0567 1.3878-0.0806 0.59937-0.11954 0.74504-0.24298 0.90628-0.12176 0.15957-0.14678 0.24964-0.14567 0.53042 0.00056 0.18571 0.0233 0.53821 0.0506 0.78285 0.0434 0.39142 0.0395 0.43646-0.0334 0.37641-0.0728-0.06-0.10286 0.0912-0.2363 1.1954-0.0845 0.695-0.21573 1.7014-0.29079 2.2368-0.0756 0.53487-0.20072 1.2983-0.278 1.6958-0.0767 0.39754-0.48817 2.0906-0.91351 3.763-0.42589 1.6719-0.77395 3.0786-0.77395 3.1258 0 0.0473-0.134 0.5054-0.29746 1.0186-0.16402 0.51319-0.31414 1.0002-0.33416 1.0825-0.02 0.0823-0.0111 0.16514 0.0195 0.18404 0.0323 0.0195-0.035 0.16791-0.15901 0.35084-0.11843 0.17402-0.37697 0.64162-0.57546 1.0392-0.19794 0.39754-0.60549 1.2933-0.90517 1.991-0.30024 0.69722-0.56323 1.2393-0.58491 1.2043-0.0239-0.0389-0.14123 0.089-0.29802 0.32471-0.14178 0.21406-0.31747 0.52319-0.38975 0.68666-0.0728 0.16402-0.22463 0.61048-0.3375 0.99246-0.11286 0.38197-0.2969 0.86513-0.40921 1.0742-0.11287 0.2085-0.32526 0.51485-0.4726 0.67999-0.14734 0.16568-0.25187 0.32637-0.23241 0.35806 0.0195 0.0311-0.006 0.20072-0.0562 0.37586-0.05 0.17569-0.22351 0.56934-0.38475 0.87514-0.16179 0.3058-0.44313 0.79397-0.62605 1.0842-0.18293 0.29023-0.42812 0.70056-0.54544 0.91128-0.11676 0.21017-0.28189 0.58269-0.3664 0.82733-0.0845 0.24409-0.17681 0.46704-0.20517 0.4954-0.0278 0.0278-0.11676 0.0562-0.19682 0.0623-0.12621 0.009-0.2591 0.19238-1.0069 1.3889-0.47427 0.75783-0.98134 1.5334-1.127 1.7236-0.14567 0.19015-0.74059 0.94909-1.3222 1.6869-0.58157 0.73726-1.3878 1.7631-1.7909 2.2796-0.40366 0.51597-0.88182 1.1048-1.0631 1.3077-0.1807 0.2035-0.54098 0.65386-0.80008 1.0008-0.2591 0.3475-0.74838 0.94409-1.087 1.3266-0.3386 0.38197-1.2466 1.3455-2.0172 2.1406-0.77117 0.79508-1.6552 1.7436-1.9649 2.1078-0.4676 0.54932-0.77395 0.83233-1.8059 1.668-0.68332 0.55322-1.7725 1.4061-2.4208 1.8954-0.6483 0.48928-1.4467 1.1098-1.7742 1.3794-0.32693 0.2691-0.59492 0.47371-0.59492 0.45425 0-0.0195-0.13122 0.0756-0.2919 0.21128-0.16068 0.13622-0.57991 0.45925-0.9313 0.71891-0.35139 0.25965-1.39 0.98022-2.3074 1.6018-0.9174 0.62161-1.9304 1.3172-2.2518 1.5457-0.32081 0.22852-0.77673 0.57491-1.013 0.76895-0.31025 0.2552-0.47371 0.35306-0.59159 0.35306-0.089 0-0.39642 0.0612-0.68276 0.13622-0.28634 0.0745-0.9958 0.31414-1.5768 0.53209-0.58102 0.21795-1.1687 0.46704-1.3066 0.55322-0.13733 0.0867-0.53821 0.31859-0.8896 0.51653-0.35139 0.19793-1.077 0.58602-1.6124 0.86291-0.53487 0.27689-1.6107 0.75894-2.3908 1.0714-0.77951 0.31247-1.8431 0.74893-2.363 0.97022-0.51986 0.22129-1.0453 0.41756-1.1676 0.43646-0.12232 0.0183-0.57268 0.16346-1.0008 0.32248-0.66164 0.2452-0.84123 0.28968-1.1954 0.29579-0.37308 0.007-0.62272 0.0762-2.363 0.65441-1.0703 0.35529-2.4581 0.78619-3.0836 0.95744-0.78674 0.21461-1.7219 0.41255-3.0302 0.64106-1.0408 0.18126-2.2157 0.38198-2.6104 0.4448-0.39476 0.0634-1.1326 0.16458-1.6402 0.22574-0.50707 0.0606-1.5601 0.134-2.3402 0.16291-0.77951 0.0289-1.668 0.0673-1.9738 0.0845-0.3058 0.0178-1.3438 0.0323-2.3074 0.0328l-1.7514 0.00056-2.4742-0.22574c-1.3605-0.12398-2.9468-0.28856-3.5245-0.36584-0.57824-0.0767-1.1537-0.16347-1.2788-0.19238-0.12566-0.0289-0.42145-0.0534-0.65719-0.0545-0.23574-0.00055-1.0114 0.0606-1.7236 0.13567-0.71224 0.0751-1.4389 0.15178-1.6146 0.16958-0.18737 0.0195-0.3197 0.0111-0.3197-0.02 0-0.0289-0.16902-0.0812-0.3753-0.11676-0.20628-0.035-0.66275-0.12732-1.0147-0.20516-0.35139-0.0773-1.0898-0.28634-1.6402-0.46426-0.55044-0.17792-1.1437-0.35418-1.3177-0.39254-0.17458-0.0378-0.31192-0.0923-0.3058-0.12065 0.0061-0.0278-0.22018-0.11009-0.50374-0.18293-0.283-0.0723-0.97078-0.28244-1.529-0.46592-0.55767-0.18348-1.2643-0.39643-1.5701-0.4726-0.3058-0.0762-0.6811-0.15513-0.834-0.17626-0.1529-0.0211-0.3197-0.0745-0.37085-0.11898-0.05115-0.045-0.27633-0.12677-0.5004-0.18237-0.22407-0.055-0.48205-0.11731-0.57324-0.13844l-0.16513-0.0378 0.1251-0.0945 0.12566-0.0945-0.62717-0.21406c-0.34472-0.11787-1.1148-0.39698-1.7114-0.61994-0.59603-0.22296-1.5095-0.57935-2.0294-0.79174-0.51986-0.2124-1.3778-0.57824-1.9065-0.81232-0.52876-0.23463-1.2666-0.57212-1.6402-0.7506-0.37363-0.17792-0.99135-0.47649-1.3739-0.66275-0.38197-0.18626-1.1076-0.55545-1.6124-0.8201-0.50429-0.26466-1.3678-0.73225-1.9182-1.0397-0.55044-0.30691-1.5012-0.85902-2.1128-1.2265-0.6116-0.36696-1.6002-0.98023-2.1962-1.3616-0.59603-0.38197-1.3222-0.85791-1.6124-1.0581-0.29023-0.1996-1.266-0.89016-2.1684-1.534-0.90183-0.64385-1.8559-1.3461-2.12-1.5601-0.2641-0.21406-1.5401-1.3294-2.8356-2.4786l-2.356-2.0895-2.1506-2.3308c-1.1832-1.2821-2.3385-2.5626-2.5687-2.8456-0.22963-0.28356-0.85012-1.1037-1.3794-1.8226-0.52931-0.71891-0.99913-1.3628-1.0442-1.4306l-0.08118-0.12399 0.13622 0.1112c0.07506 0.0612-0.01279-0.0639-0.19571-0.278-0.18237-0.21406-0.57157-0.66442-0.86402-1.0008-0.29301-0.33638-0.55489-0.64941-0.58158-0.695-0.04226-0.0717-0.03614-0.0728 0.04504-0.007 0.05171 0.0423 0.09396 0.0578 0.09396 0.0345 0-0.0228-0.1301-0.27021-0.28912-0.54877-0.15846-0.27911-0.51764-0.88237-0.7973-1.3411-0.27967-0.4587-0.79286-1.2844-1.1404-1.8348-0.34694-0.55044-0.95298-1.539-1.3466-2.1962-0.39365-0.65775-0.99246-1.7525-1.3311-2.4342-0.3386-0.6811-0.59881-1.2549-0.5788-1.2749 0.02002-0.02 0.06616-0.007 0.1023 0.0295 0.03614 0.0361 0.08729 0.0656 0.11398 0.0656 0.02613 0 0.03058-0.0545 0.01001-0.12065-0.02113-0.0662-0.12677-0.25854-0.23463-0.42701-0.10731-0.16847-0.3286-0.58324-0.49095-0.92185-0.16235-0.3386-0.45592-1.092-0.65219-1.6741-0.19627-0.58214-0.42534-1.1948-0.5093-1.3622-0.0834-0.1668-0.24909-0.43368-0.36807-0.59326-0.11898-0.15901-0.21628-0.31858-0.21628-0.35361 0-0.0367 0.0467-0.0523 0.10786-0.0367l0.10842 0.0284-0.10342-0.25799c-0.05671-0.14178-0.39643-0.99635-0.75505-1.8982-0.35862-0.90239-0.71224-1.8532-0.78507-2.1128-0.07339-0.26021-0.49484-1.8298-0.93742-3.4883l-0.83-3.03-0.473-3.15c-0.26021-1.7358-0.49818-3.331-0.5282-3.5451-0.03058-0.21406-0.09285-1.37-0.139-2.5682-0.04559-1.1987-0.10786-2.2996-0.13844-2.4464-0.03002-0.14734-0.09508-0.55545-0.14345-0.90684-0.05727-0.41478-0.09897-1.2604-0.11898-2.4086-0.02113-1.2238-0.0017-2.4142 0.06172-3.8642 0.0506-1.152 0.13066-2.4453 0.17681-2.8734 0.0467-0.42812 0.1946-1.5168 0.3286-2.4186 0.134-0.90239 0.32026-2.2657 0.41366-3.0302 0.09341-0.7645 0.27355-1.9532 0.39921-2.641 0.13511-0.7367 0.26076-1.276 0.30524-1.3116 0.04114-0.03392 0.16346-0.49484 0.27133-1.0253 0.10731-0.53042 0.28356-1.3199 0.39087-1.7547 0.10675-0.43479 0.31859-1.2288 0.47038-1.7636 0.15234-0.53543 0.43702-1.4573 0.63328-2.0489 0.19627-0.59158 0.52542-1.5257 0.7317-2.0761 0.20628-0.55044 0.63162-1.6013 0.9452-2.3352 0.31358-0.73392 0.8251-1.8726 1.1359-2.5298 0.31136-0.65719 0.8429-1.7208 1.1821-2.363 0.3386-0.64218 0.84067-1.5679 1.1153-2.0572 0.27466-0.48928 0.83845-1.4528 1.2532-2.1406 0.41422-0.68833 1.0914-1.7742 1.5045-2.4142 0.41311-0.6394 0.90294-1.3694 1.0881-1.6219 0.18515-0.25242 0.74838-1.0175 1.251-1.7002 0.50262-0.68277 1.3049-1.767 1.7825-2.4091 0.4776-0.64218 1.1192-1.4678 1.4256-1.8348 0.3058-0.36696 0.77618-0.90517 1.0447-1.1954 0.28189-0.30469 0.5332-0.52876 0.59381-0.52987 0.06783-0.0011 0.24798-0.19126 0.50096-0.5282 0.2174-0.28968 0.6027-0.7645 0.85568-1.0547 0.25298-0.29079 0.83178-0.89182 1.286-1.3355 0.45481-0.44424 1.2643-1.1837 1.7992-1.643 0.53543-0.45926 1.385-1.1793 1.8882-1.6002 0.50318-0.42034 1.2916-1.0342 1.7514-1.3633 0.45981-0.32915 1.2994-0.92796 1.8648-1.3305 0.56601-0.40254 1.5112-1.1064 2.1011-1.564 0.58992-0.45814 1.3405-1.0186 1.668-1.2466 0.32748-0.2274 0.7456-0.52208 0.92908-0.65441l0.3336-0.24075-0.10175 0.15624-0.10175 0.15624 0.27744-0.21906c0.15234-0.12065 0.68666-0.47149 1.1871-0.78007 0.5004-0.30858 1.0058-0.6444 1.1237-0.74615 0.12288-0.1062 0.2174-0.24019 0.22184-0.31247 0.0056-0.10564 0.09174-0.16291 0.50707-0.33749 0.27522-0.11565 0.69-0.34639 0.92129-0.51319 0.2313-0.1668 0.6622-0.44702 0.95743-0.62328 0.29524-0.17625 0.99413-0.54154 1.5529-0.81232 0.55878-0.27077 1.4167-0.66053 1.906-0.86569 0.48928-0.20516 1.1276-0.45981 1.4178-0.56601 0.29023-0.10564 1.2204-0.42756 2.0667-0.71446 0.84623-0.28745 1.8476-0.64552 2.2251-0.79564 0.37697-0.15068 0.90739-0.37641 1.1782-0.50151 0.27022-0.12454 0.46092-0.19015 0.42312-0.14456-0.04615 0.0556 0.02836 0.04003 0.23018-0.04837 0.16402-0.07228 0.51152-0.20794 0.77117-0.30191 0.26021-0.09396 0.68555-0.23408 0.9452-0.31136 0.26021-0.07784 0.69778-0.18904 0.973-0.24798s0.58825-0.12176 0.695-0.13956l0.1946-0.03336-0.139 0.08062-0.139 0.08006 0.11342 0.0017c0.06227 0.0011 0.47538-0.06227 0.9174-0.14067 0.44202-0.07895 1.4172-0.28078 2.1662-0.44869 0.74949-0.16791 1.6519-0.36474 2.006-0.43702 0.35417-0.07284 1.0169-0.19571 1.4734-0.27355 0.45648-0.07728 1.5179-0.27744 2.3586-0.44369 0.84123-0.16624 1.867-0.35362 2.2796-0.41533 0.41311-0.06227 1.0636-0.14122 1.4456-0.17625 0.38253-0.03503 0.79508-0.05504 0.9174-0.04448l0.2224 0.0189-0.2224 0.12288c-0.12232 0.06728-0.20683 0.12343-0.18848 0.1251 0.0189 0.0011 0.16346-0.02224 0.32081-0.05226 0.1579-0.03002 0.70556-0.09063 1.2171-0.13566 0.51152-0.04448 1.6152-0.11231 2.4525-0.15068 1.2115-0.05504 1.7909-0.05504 2.8356-0.000556 0.72224 0.03781 1.594 0.0834 1.9371 0.1023 0.3425 0.01835 0.61049 0.05449 0.59437 0.08006-0.0156 0.02558 0.004 0.03614 0.0439 0.02391 0.0395-0.01223 0.3664-0.03725 0.72558-0.05504l0.6533-0.0328v0.10453c0 0.07284 0.0534 0.11509 0.17403 0.139 0.0951 0.01946 0.35417 0.03503 0.57435 0.03503 0.22073 0 0.79952 0.03836 1.286 0.08451 0.4865 0.0467 2.1823 0.24798 3.768 0.44758s3.162 0.41255 3.5028 0.47316c0.34082 0.0606 0.94297 0.18793 1.3383 0.283 0.63829 0.1529 0.70723 0.1807 0.61549 0.24742-0.0567 0.0417-0.0923 0.08396-0.0795 0.09452 0.0134 0.01001 0.2869 0.06227 0.60771 0.11565 0.32137 0.05282 1.0931 0.2085 1.7153 0.34583 0.62216 0.13678 1.5351 0.36418 2.0294 0.50485 0.49373 0.14067 1.5485 0.50485 2.3435 0.80898 0.79508 0.30358 1.8459 0.69667 2.3352 0.87348 0.48928 0.17625 1.0586 0.37586 1.2649 0.44369 0.20628 0.06783 0.3753 0.14234 0.3753 0.16569s0.25632 0.15068 0.5699 0.283c0.31358 0.13288 1.0325 0.44702 1.5985 0.69889 0.56601 0.25187 1.6291 0.74337 2.363 1.0925 0.73392 0.34972 1.8976 0.93074 2.5854 1.2921 0.68833 0.36084 1.6763 0.8946 2.1962 1.1865 0.51986 0.29134 1.3705 0.78396 1.8904 1.0953 0.51986 0.3108 1.3705 0.83567 1.8904 1.1665 0.51986 0.33026 1.2582 0.81454 1.6402 1.0753 0.38253 0.26076 0.99524 0.68777 1.3622 0.94798 0.36696 0.26076 1.0675 0.7734 1.5568 1.1392 0.48928 0.36585 1.3027 0.99524 1.807 1.3989 0.50485 0.4031 1.3055 1.0659 1.7792 1.4723 0.47427 0.40699 1.1248 0.97912 1.4456 1.2716 0.32137 0.29246 0.5838 0.54933 0.5838 0.57101 0 0.02113 0.18793 0.16124 0.417 0.31136 0.22963 0.15012 0.45425 0.31803 0.49984 0.37363l0.0829 0.10119-0.13289-0.04226-0.13288-0.04226 0.13233 0.18737c0.0728 0.10286 0.29468 0.37419 0.49261 0.60382 0.19794 0.22907 1.0781 1.1548 1.9566 2.0572 0.87792 0.90183 1.6919 1.7631 1.8092 1.9126 0.11732 0.15012 0.31136 0.38308 0.43201 0.51819 0.1201 0.13455 0.26744 0.27133 0.32638 0.30302 0.0801 0.04281 0.12009 0.03836 0.15345-0.01612 0.025-0.04059 0.0545-0.06172 0.0651-0.04726s0.19349 0.23852 0.407 0.49873c0.21406 0.26021 0.566 0.69778 0.78229 0.973 0.21684 0.27522 0.75671 0.98801 1.2004 1.5846 0.44313 0.59603 1.132 1.5596 1.5307 2.1406 0.39921 0.58102 1.0364 1.544 1.4161 2.1406 0.38031 0.59603 0.96633 1.5468 1.3027 2.1128 0.33638 0.56601 0.84957 1.4539 1.1415 1.9738 0.29134 0.51986 0.80064 1.4578 1.132 2.085 0.33138 0.62661 0.86959 1.6908 1.1965 2.3647 0.32637 0.67387 0.85957 1.817 1.1848 2.5404 0.39365 0.87626 0.59103 1.3822 0.59103 1.5134 0 0.13455-0.0256 0.19794-0.0795 0.19794s0.0678 0.3058 0.38309 0.9591c0.25409 0.52764 0.61771 1.3455 0.80786 1.8181 0.19016 0.4726 0.52932 1.4111 0.75394 2.085 0.22462 0.67443 0.53265 1.6925 0.68444 2.2624 0.15234 0.5699 0.39031 1.5457 0.52931 2.1684 0.139 0.62272 0.33971 1.6074 0.44591 2.1884 0.1062 0.58102 0.25632 1.4817 0.3336 2.0016 0.0773 0.51986 0.20294 1.4328 0.27967 2.0294 0.0762 0.59603 0.20238 1.7025 0.27967 2.4581 0.0778 0.75616 0.14122 1.4128 0.14122 1.4595 0 0.04726 0.025 0.08562 0.0556 0.08562s0.0562-0.03114 0.0567-0.0695c0-0.03836 0.025-0.10731 0.0556-0.1529 0.0484-0.07395 0.0606-0.07395 0.10898 0 0.0389 0.05894 0.055-0.02836 0.0556-0.29857 0.00055-0.21017-0.0378-0.6483-0.0856-0.973-0.0484-0.32526-0.19738-1.0469-0.33193-1.6041-0.13399-0.55711-0.28133-1.2199-0.32693-1.4734-0.0456-0.25298-0.0995-0.65441-0.12009-0.89127-0.0245-0.28356-0.0172-0.4309 0.0206-0.4309 0.0317 0 0.0701 0.03114 0.0856 0.0695 0.0156 0.03836 0.03-0.0056 0.0322-0.0973 0.002-0.09174-0.0222-0.26021-0.0534-0.37363-0.0317-0.11398-0.0906-0.22629-0.13066-0.2502-0.0406-0.02391-0.1012-0.0973-0.13567-0.16291-0.0345-0.06561-0.0667-0.29802-0.0712-0.51652-0.004-0.21851 0.009-0.41422 0.03-0.43479 0.0206-0.02113 0.0612-0.0011 0.0901 0.04392 0.0356 0.0556 0.0417 0.0189 0.0183-0.11287-0.0183-0.10731-0.0923-0.4776-0.16347-0.82344-0.0717-0.34583-0.30858-1.2966-0.52708-2.1128-0.21851-0.81621-0.54433-1.9983-0.72392-2.6271-0.17903-0.62828-0.40421-1.365-0.49984-1.6363-0.0962-0.27133-0.27188-0.70501-0.39142-0.96355s-0.2174-0.53598-0.2174-0.6166-0.0456-0.30858-0.10175-0.50652c-0.0556-0.19794-0.28411-0.87348-0.50651-1.5001-0.22296-0.62717-0.44703-1.34-0.49762-1.5846-0.0617-0.2969-0.20628-0.6761-0.43424-1.1398-0.18793-0.38253-0.3942-0.7506-0.45814-0.81843-0.0639-0.06839-0.30636-0.56879-0.53877-1.112-0.23241-0.54377-0.68277-1.539-1.0008-2.2118-0.31859-0.67276-0.83733-1.7114-1.1537-2.3074-0.31636-0.59659-0.81343-1.499-1.1042-2.0066-0.29135-0.50707-0.77396-1.3199-1.0731-1.807-0.29858-0.4865-0.84957-1.3472-1.2232-1.9132-0.37419-0.56601-0.96633-1.43-1.3155-1.921-0.34972-0.49095-0.87014-1.2037-1.1565-1.5846-0.28634-0.38086-0.80842-1.0553-1.1604-1.4984-0.35195-0.44369-0.95354-1.1815-1.3372-1.6402-0.38364-0.4587-1.0981-1.2832-1.5879-1.8326-0.48983-0.54877-1.4434-1.5746-2.1195-2.2796-0.67554-0.70445-1.7764-1.797-2.4464-2.4275-0.66942-0.6305-1.345-1.256-1.5001-1.39-0.15512-0.134-1.2265-0.96911-2.3808-1.8559-1.1543-0.88682-2.7038-2.0722-3.4428-2.6338-0.73948-0.56212-1.807-1.3522-2.373-1.7558-0.56601-0.40366-1.4417-1.0091-1.946-1.3455-0.50429-0.33638-1.3049-0.85068-1.7792-1.142-0.47371-0.2919-1.1615-0.69778-1.5279-0.90294-0.3664-0.20461-0.67943-0.39309-0.695-0.41811-0.0161-0.02446-0.3664-0.18348-0.77951-0.3525-0.41311-0.16958-1.226-0.51986-1.807-0.77896-0.58102-0.2591-1.2566-0.56434-1.5012-0.67832-0.24464-0.11398-0.8846-0.42701-1.4222-0.69556l-0.978-0.48872-0.9402-0.20516c-0.80175-0.17458-1.0825-0.26632-1.9015-0.62105-0.5282-0.22907-1.4039-0.58658-1.946-0.79564-0.54154-0.2085-1.4856-0.54599-2.0972-0.7506-0.6116-0.20405-1.5874-0.5054-2.1684-0.66998-0.58102-0.16402-1.5068-0.41088-2.0572-0.54822-0.55044-0.13678-1.4139-0.33749-1.9182-0.4448-0.50429-0.10786-1.3928-0.28467-1.9738-0.39254-0.58102-0.10786-1.6191-0.28356-2.3074-0.38976-0.68777-0.1062-1.7514-0.2552-2.363-0.33138-0.6116-0.07673-1.4745-0.17625-1.9182-0.22184-0.44313-0.04615-1.0186-0.09786-1.2788-0.11565-0.25965-0.01779-1.4973-0.08173-2.75-0.14178s-2.5915-0.10564-2.9746-0.10119zm73.206 67.685-0.0923-0.1668 0.0306 0.4726c0.0167 0.25965 0.0417 0.52876 0.0556 0.5977s0.0534 0.1251 0.0873 0.1251c0.0417 0 0.0534-0.13733 0.0361-0.4309-0.015-0.25242-0.0634-0.49984-0.11732-0.5977zm0.0834 1.9315c-0.0239-0.11398-0.0595-0.1807-0.0789-0.14845-0.02 0.03225 0.11676 0.52876 0.30413 1.1042 0.27856 0.85457 0.34917 1.0225 0.38809 0.91684 0.0284-0.07506 0.0239-0.23908-0.009-0.39587-0.0311-0.14678-0.17069-0.49262-0.30914-0.76839-0.13844-0.27578-0.27132-0.59436-0.29468-0.70834zm0.62495 2.9891-0.084-0.139 0.0367 0.1946c0.02 0.10675 0.0573 0.23185 0.0834 0.278 0.0361 0.06283 0.0478 0.04948 0.0473-0.0556 0-0.07673-0.0378-0.20183-0.0834-0.278z" fill="#e5dcc4"/>
  </g>
  <path id="path89405" style="font-variant-ligatures:none" d="m370.63 429.89c-1.056-0.504-2.256-0.792-3.504-0.792h-6.816v16.008h6.792c1.272 0 2.448-0.288 3.504-0.816 2.664-1.296 4.488-4.032 4.488-7.2 0.024-3.144-1.824-5.88-4.464-7.2zm-3.456 11.52h-3.072v-8.64h3c2.376 0 4.32 1.944 4.32 4.32 0.024 2.376-1.896 4.296-4.248 4.32z" stroke-miterlimit="2" stroke-width="0" fill="#a47849"/>
  <path id="path89407" style="font-variant-ligatures:none" d="m383.52 433.2c-3.552 0-6 2.736-6 6.096 0 3.72 2.664 6.096 6.192 6.096 1.8 0 3.672-0.48 5.016-1.848l-1.56-2.256-0.288 0.288c-0.696 0.696-1.992 1.056-2.856 1.056-1.488 0-2.592-0.792-2.928-1.992h8.208v-1.008c0.024-3.84-2.328-6.432-5.784-6.432zm0 2.784c1.536 0 2.424 1.104 2.52 2.208h-5.04c0.192-1.2 1.056-2.208 2.52-2.208z" stroke-miterlimit="2" stroke-width="0" fill="#a47849"/>
  <path id="path89409" style="font-variant-ligatures:none" d="m400.6 433.49-2.64 7.104-2.664-7.104h-3.624l4.656 11.592h3.288l4.656-11.592z" stroke-miterlimit="2" stroke-width="0" fill="#a47849"/>
  <path id="path89411" style="font-variant-ligatures:none" d="m412.63 433.2c-3.552 0-6 2.736-6 6.096 0 3.72 2.664 6.096 6.192 6.096 1.8 0 3.672-0.48 5.016-1.848l-1.56-2.256-0.288 0.288c-0.696 0.696-1.992 1.056-2.856 1.056-1.488 0-2.592-0.792-2.928-1.992h8.208v-1.008c0.024-3.84-2.328-6.432-5.784-6.432zm0 2.784c1.536 0 2.424 1.104 2.52 2.208h-5.04c0.192-1.2 1.056-2.208 2.52-2.208z" stroke-miterlimit="2" stroke-width="0" fill="#a47849"/>
  <path id="path89413" style="font-variant-ligatures:none" d="m420.83 429.07v16.008h3.384v-16.008z" stroke-miterlimit="2" stroke-width="0" fill="#a47849"/>
  <path id="path89415" style="font-variant-ligatures:none" d="m432.67 433.22c-3.36 0-6.072 2.736-6.072 6.096s2.712 6.072 6.072 6.072 6.072-2.712 6.072-6.072-2.712-6.096-6.072-6.096zm0 8.784c-1.488 0-2.712-1.2-2.712-2.688s1.224-2.688 2.712-2.688 2.712 1.2 2.712 2.688c0 1.512-1.224 2.688-2.712 2.688z" stroke-miterlimit="2" stroke-width="0" fill="#a47849"/>
  <path id="path89417" style="font-variant-ligatures:none" d="m447.73 433.2c-1.248 0-2.376 0.48-3.24 1.368v-1.08h-3.36v16.008h3.384v-5.5c0.888 0.936 2.04 1.392 3.24 1.392 2.976 0 5.136-2.256 5.136-6.096 0-3.864-2.184-6.096-5.16-6.096zm-0.936 9.12c-0.816 0-1.8-0.48-2.28-1.08v-3.888c0.456-0.624 1.44-1.08 2.28-1.08 1.536 0 2.592 1.2 2.592 3.024-0.024 1.824-1.056 3.024-2.592 3.024z" stroke-miterlimit="2" stroke-width="0" fill="#a47849"/>
  <path id="path89419" style="font-variant-ligatures:none" d="m469.3 433.2c-1.776 0-3.312 1.056-3.984 2.112-0.432-1.32-1.488-2.112-3.216-2.112-1.464 0-2.76 0.768-3.456 1.416v-1.128h-3.36v11.616h3.384v-7.68c0.408-0.552 1.176-1.152 2.064-1.152 0.6 0 1.392 0.168 1.392 1.512v7.32h3.768v-7.728c0.384-0.528 1.152-1.128 2.064-1.128 0.576 0 1.392 0.168 1.392 1.512v7.32h3.408v-8.376c-0.048-2.376-1.296-3.504-3.456-3.504z" stroke-miterlimit="2" stroke-width="0" fill="#a47849"/>
  <path id="path89421" style="font-variant-ligatures:none" d="m481.16 433.2c-3.552 0-6 2.736-6 6.096 0 3.72 2.664 6.096 6.192 6.096 1.8 0 3.672-0.48 5.016-1.848l-1.56-2.256-0.288 0.288c-0.696 0.696-1.992 1.056-2.856 1.056-1.488 0-2.592-0.792-2.928-1.992h8.208v-1.008c0.024-3.84-2.328-6.432-5.784-6.432zm0 2.784c1.536 0 2.424 1.104 2.52 2.208h-5.04c0.192-1.2 1.056-2.208 2.52-2.208z" stroke-miterlimit="2" stroke-width="0" fill="#a47849"/>
  <path id="path89423" style="font-variant-ligatures:none" d="m496.46 433.2c-1.632 0-2.928 0.696-3.72 1.44v-1.152h-3.384v11.592h3.384v-7.68c0.288-0.36 1.032-1.128 2.304-1.128s1.8 0.528 1.8 1.824v7.008h3.384v-8.208c0-2.256-1.224-3.696-3.768-3.696z" stroke-miterlimit="2" stroke-width="0" fill="#a47849"/>
  <path id="path89425" style="font-variant-ligatures:none" d="m509.92 441.82s-0.264 0.216-0.432 0.336c-0.144 0.096-0.432 0.216-0.84 0.216-0.528 0-0.72-0.48-0.72-0.936v-5.088h2.016v-2.976h-1.992v-3.024h-3.408v3h-1.92v3h1.92v5.88c0 2.064 1.152 3.168 3.288 3.168 1.272 0 2.184-0.312 2.832-0.96z" stroke-miterlimit="2" stroke-width="0" fill="#a47849"/>
  <path id="path89427" style="font-variant-ligatures:none" d="m518.74 433.2c-1.824 0-3.864 0.624-5.328 2.064l1.344 2.352 0.312-0.288c0.912-0.84 1.968-1.272 3.144-1.272 1.344 0 2.208 0.624 2.208 1.608v1.2c-0.792-0.672-1.992-1.056-3.312-1.056-1.848 0-4.032 1.032-4.032 3.744 0 2.592 2.184 3.84 4.032 3.84 1.296 0 2.496-0.432 3.312-1.152v0.864h3.408v-7.488c-0.024-3.36-2.448-4.416-5.088-4.416zm-0.432 7.008c0.888 0 1.68 0.288 2.112 0.768v1.2c-0.432 0.504-1.2 0.792-2.112 0.792s-1.848-0.408-1.848-1.368c0-1.032 0.984-1.392 1.848-1.392z" stroke-miterlimit="2" stroke-width="0" fill="#a47849"/>
  <path id="path89429" style="font-variant-ligatures:none" d="m526.25 429.07v16.008h3.384v-16.008z" stroke-miterlimit="2" stroke-width="0" fill="#a47849"/>
  <path id="path89431" style="font-variant-ligatures:none" d="m538.16 429.1v16.008h11.328v-3.384h-7.536v-2.856h7.344v-3.384h-7.344v-3h7.536v-3.384z" stroke-miterlimit="2" stroke-width="0" fill="#a47849"/>
  <path id="path89433" style="font-variant-ligatures:none" d="m559.83 439.13 3.888-5.64h-3.816l-1.968 2.976-1.992-2.976h-3.816l3.864 5.64-4.104 5.952h3.792l2.256-3.288 2.208 3.288h3.84z" stroke-miterlimit="2" stroke-width="0" fill="#a47849"/>
  <path id="path89435" style="font-variant-ligatures:none" d="m574.07 440.66c-0.48 0.816-1.344 1.344-2.328 1.344-1.488 0-2.712-1.2-2.712-2.688s1.2-2.688 2.712-2.688c0.984 0 1.848 0.528 2.328 1.344l2.496-2.352c-1.104-1.44-2.856-2.4-4.824-2.4-3.36 0-6.072 2.736-6.072 6.096s2.712 6.072 6.072 6.072c1.968 0 3.72-0.936 4.824-2.4z" stroke-miterlimit="2" stroke-width="0" fill="#a47849"/>
  <path id="path89437" style="font-variant-ligatures:none" d="m584.98 433.2c-3.552 0-6 2.736-6 6.096 0 3.72 2.664 6.096 6.192 6.096 1.8 0 3.672-0.48 5.016-1.848l-1.56-2.256-0.288 0.288c-0.696 0.696-1.992 1.056-2.856 1.056-1.488 0-2.592-0.792-2.928-1.992h8.208v-1.008c0.024-3.84-2.328-6.432-5.784-6.432zm0 2.784c1.536 0 2.424 1.104 2.52 2.208h-5.04c0.192-1.2 1.056-2.208 2.52-2.208z" stroke-miterlimit="2" stroke-width="0" fill="#a47849"/>
  <path id="path89439" style="font-variant-ligatures:none" d="m593.19 429.07v16.008h3.384v-16.008z" stroke-miterlimit="2" stroke-width="0" fill="#a47849"/>
  <path id="path89441" style="font-variant-ligatures:none" d="m598.95 429.07v16.008h3.384v-16.008z" stroke-miterlimit="2" stroke-width="0" fill="#a47849"/>
  <path id="path89443" style="font-variant-ligatures:none" d="m610.72 433.2c-3.552 0-6 2.736-6 6.096 0 3.72 2.664 6.096 6.192 6.096 1.8 0 3.672-0.48 5.016-1.848l-1.56-2.256-0.288 0.288c-0.696 0.696-1.992 1.056-2.856 1.056-1.488 0-2.592-0.792-2.928-1.992h8.208v-1.008c0.024-3.84-2.328-6.432-5.784-6.432zm0 2.784c1.536 0 2.424 1.104 2.52 2.208h-5.04c0.192-1.2 1.056-2.208 2.52-2.208z" stroke-miterlimit="2" stroke-width="0" fill="#a47849"/>
  <path id="path89445" style="font-variant-ligatures:none" d="m626.03 433.2c-1.632 0-2.928 0.696-3.72 1.44v-1.152h-3.384v11.592h3.384v-7.68c0.288-0.36 1.032-1.128 2.304-1.128s1.8 0.528 1.8 1.824v7.008h3.384v-8.208c0-2.256-1.224-3.696-3.768-3.696z" stroke-miterlimit="2" stroke-width="0" fill="#a47849"/>
  <path id="path89447" style="font-variant-ligatures:none" d="m640.59 440.66c-0.48 0.816-1.344 1.344-2.328 1.344-1.488 0-2.712-1.2-2.712-2.688s1.2-2.688 2.712-2.688c0.984 0 1.848 0.528 2.328 1.344l2.496-2.352c-1.104-1.44-2.856-2.4-4.824-2.4-3.36 0-6.072 2.736-6.072 6.096s2.712 6.072 6.072 6.072c1.968 0 3.72-0.936 4.824-2.4z" stroke-miterlimit="2" stroke-width="0" fill="#a47849"/>
  <path id="path89449" style="font-variant-ligatures:none" d="m651.5 433.2c-3.552 0-6 2.736-6 6.096 0 3.72 2.664 6.096 6.192 6.096 1.8 0 3.672-0.48 5.016-1.848l-1.56-2.256-0.288 0.288c-0.696 0.696-1.992 1.056-2.856 1.056-1.488 0-2.592-0.792-2.928-1.992h8.208v-1.008c0.024-3.84-2.328-6.432-5.784-6.432zm0 2.784c1.536 0 2.424 1.104 2.52 2.208h-5.04c0.192-1.2 1.056-2.208 2.52-2.208z" stroke-miterlimit="2" stroke-width="0" fill="#a47849"/>
  <path id="path89451" style="font-variant-ligatures:none" d="m661.7 445.39c1.104 0 1.992-0.888 1.992-1.992 0-1.08-0.888-1.968-1.992-1.968s-1.992 0.888-1.992 1.968 0.912 1.992 1.992 1.992z" stroke-miterlimit="2" stroke-width="0" fill="#a47849"/>
  <polygon id="polygon38" style="font-variant-ligatures:normal" transform="matrix(1.67 0 0 1.67 130.33 194.77)" class="c1" points="86.403 74.093 71.802 74.093 71.802 124.53 86.403 124.53 86.403 97.724 92.701 108.4 100 120.78 107.3 108.4 113.6 97.729 113.6 124.53 128.2 124.53 128.2 74.093 113.6 74.093 113.6 74.095 112.94 74.095 100 96.028 87.067 74.095 86.403 74.095" stroke-miterlimit="2" stroke-width="0" fill="#bb6555"/>
  <polygon id="polygon47" style="font-variant-ligatures:normal" transform="matrix(1.67 0 0 1.67 130.33 194.77)" class="highlight" points="107.3 108.4 100 120.78 92.701 108.4 72.468 74.095 87.067 74.095 100 96.028" stroke-miterlimit="2" stroke-width="0" fill="url(#82f0a0e0-06d4-4154-a4b3-0d5f50a91e45)"/>
  <polygon id="polygon56" style="font-variant-ligatures:normal" transform="matrix(1.67 0 0 1.67 130.33 194.77)" class="highlight" points="113.6 74.093 128.2 74.093 128.2 124.53 113.6 124.53" stroke-miterlimit="2" stroke-width="0" fill="url(#608b7779-318c-4535-bf14-d1be891616f6)"/>
  <polygon id="polygon67" style="font-variant-ligatures:normal" transform="matrix(1.67 0 0 1.67 130.33 194.77)" class="highlight" points="100 96.027 107.3 108.4 113.6 97.729 113.6 74.095 112.94 74.095" stroke-miterlimit="2" stroke-width="0" fill="url(#f04d76d0-954e-4eba-80ef-22d1b2cf81ab)"/>
  <polygon id="polygon78" style="font-variant-ligatures:normal" transform="matrix(1.67 0 0 1.67 130.33 194.77)" class="highlight" points="71.802 74.093 71.802 124.53 86.403 124.53 86.403 97.724 72.467 74.093" stroke-miterlimit="2" stroke-width="0" fill="url(#9b8a098e-46c9-4570-b2ae-1fc90fb5fca5)"/>
  <polygon id="polygon81" style="font-variant-ligatures:normal" transform="matrix(1.67 0 0 1.67 228.07 194.77)" class="c1" points="107.3 124.53 107.3 107.8 125.22 74.093 110.62 74.093 100 94.067 89.382 74.093 74.782 74.093 92.7 107.8 92.7 124.53" stroke-miterlimit="2" stroke-width="0" fill="#bb6555"/>
  <polygon id="polygon88" style="font-variant-ligatures:normal" transform="matrix(1.67 0 0 1.67 228.07 194.77)" class="highlight" points="107.3 107.8 92.7 107.8 110.62 74.093 125.22 74.093" stroke-miterlimit="2" stroke-width="0" fill="url(#10cb8b26-7f45-4b83-9f48-64cf427fbce3)"/>
  <polygon id="polygon95" style="font-variant-ligatures:normal" transform="matrix(1.67 0 0 1.67 228.07 194.77)" class="highlight" points="107.3 107.8 92.7 107.8 110.62 74.093 125.22 74.093" stroke-miterlimit="2" stroke-width="0" fill="url(#ba741db9-ddaf-4a57-84ed-db2e1d916f43)"/>
  <rect id="rect102" style="font-variant-ligatures:normal" height="27.938" width="24.383" stroke-miterlimit="2" y="374.79" x="382.88" stroke-width="0" class="highlight" fill="url(#78b6c3fd-c5be-46cc-89e9-8af93a4db9d3)"/>
  <polygon id="polygon111" style="font-variant-ligatures:normal" transform="matrix(1.67 0 0 1.67 228.07 194.77)" class="highlight" points="92.7 107.8 100 94.067 89.382 74.093 74.782 74.093" stroke-miterlimit="2" stroke-width="0" fill="url(#ccbc0e96-0100-407f-a327-09f698b13b27)"/>
  <polygon id="polygon114" style="font-variant-ligatures:normal" transform="matrix(1.67 0 0 1.67 309.28 194.77)" class="c1" points="92.699 87.365 92.7 87.365 92.7 124.53 107.3 124.53 107.3 87.365 121.78 87.365 121.78 74.093 92.699 74.093 92.699 74.093 78.22 74.093 78.22 87.365" stroke-miterlimit="2" stroke-width="0" fill="#bb6555"/>
  <polygon id="polygon125" style="font-variant-ligatures:normal" transform="matrix(1.67 0 0 1.67 309.28 194.77)" class="highlight" points="92.699 74.093 92.699 87.365 78.22 87.365 78.22 74.093" stroke-miterlimit="2" stroke-width="0" fill="url(#16a7bedb-2bd7-4335-9ffd-71e5a300f5f9)"/>
  <polygon id="polygon134" style="font-variant-ligatures:normal" transform="matrix(1.67 0 0 1.67 309.28 194.77)" class="highlight" points="107.3 87.365 92.7 74.093 92.7 124.53 107.3 124.53" stroke-miterlimit="2" stroke-width="0" fill="url(#f3712b5e-b318-47cb-9334-4f3efd8baa01)"/>
  <polygon id="polygon145" style="font-variant-ligatures:normal" transform="matrix(1.67 0 0 1.67 309.28 194.77)" class="highlight" points="107.3 87.365 121.78 87.365 121.78 74.093 92.7 74.093" stroke-miterlimit="2" stroke-width="0" fill="url(#ff0bda64-1db7-4f94-b8ab-dd3f9420d27b)"/>
  <polygon id="polygon148" style="font-variant-ligatures:normal" transform="matrix(1.67 0 0 1.67 395.8 194.77)" class="c1" points="76.151 92.675 76.151 92.676 76.151 124.53 90.751 124.53 90.751 105.95 90.751 105.95 109.25 105.95 109.25 105.95 109.25 124.53 123.85 124.53 123.85 105.95 123.85 74.093 109.25 74.093 109.25 92.676 90.751 92.676 90.751 92.675 90.751 74.093 76.151 74.093" stroke-miterlimit="2" stroke-width="0" fill="#bb6555"/>
  <polygon id="polygon159" style="font-variant-ligatures:normal" transform="matrix(1.67 0 0 1.67 395.8 194.77)" class="highlight" points="90.751 124.53 90.751 105.95 76.151 92.675 76.151 124.53" stroke-miterlimit="2" stroke-width="0" fill="url(#0d3f4036-cd01-423f-aaf9-b530b57646f4)"/>
  <polygon id="polygon168" style="font-variant-ligatures:normal" transform="matrix(1.67 0 0 1.67 395.8 194.77)" class="highlight" points="123.85 105.95 109.25 92.676 109.25 124.53 123.85 124.53" stroke-miterlimit="2" stroke-width="0" fill="url(#5cddbf7c-bb29-4766-9cba-9525df1043be)"/>
  <polygon id="polygon179" style="font-variant-ligatures:normal" transform="matrix(1.67 0 0 1.67 395.8 194.77)" class="highlight" points="109.25 92.676 109.25 105.95 90.75 105.95 76.15 92.676" stroke-miterlimit="2" stroke-width="0" fill="url(#0b0bc532-f2e7-45c3-870f-fdf25088b1b0)"/>
  <rect id="rect190" style="font-variant-ligatures:normal" height="31.034" width="24.383" stroke-miterlimit="2" y="318.5" x="522.97" stroke-width="0" class="highlight" fill="url(#eac99df0-d2c8-44aa-88e4-1c0ad7027220)"/>
  <polygon id="polygon201" style="font-variant-ligatures:normal" transform="matrix(1.67 0 0 1.67 395.8 194.77)" class="highlight" points="109.25 92.675 123.85 105.95 123.85 74.093 109.25 74.093" stroke-miterlimit="2" stroke-width="0" fill="url(#423604a1-85dd-4ab6-9f08-2258bd909e2f)"/>
  <polygon id="polygon204" style="font-variant-ligatures:normal" transform="matrix(1.67 0 0 1.67 568.74 194.74)" class="c1" points="91.789 74.111 91.789 74.11 81.307 83.64 77.189 87.383 77.189 87.384 77.189 92.004 77.189 92.004 91.789 105.28 108.21 105.28 108.21 111.26 79.189 111.26 79.189 124.53 108.21 124.53 108.21 124.53 118.69 115 122.81 111.26 122.81 111.26 122.81 105.28 122.81 105.28 122.81 105.28 108.21 92.004 91.789 92.004 91.789 87.383 120.81 87.384 120.81 74.111" stroke-miterlimit="2" stroke-width="0" fill="#bb6555"/>
  <polygon id="polygon213" style="font-variant-ligatures:normal" transform="matrix(1.67 0 0 1.67 568.74 194.74)" class="highlight" points="79.189 111.26 79.189 124.53 108.21 124.53 122.81 111.26" stroke-miterlimit="2" stroke-width="0" fill="url(#c3e4b12e-7edb-43a8-aeb6-c0c6e504bf64)"/>
  <polygon id="polygon222" style="font-variant-ligatures:normal" transform="matrix(1.67 0 0 1.67 568.74 194.74)" class="highlight" points="120.81 87.384 120.81 74.111 91.789 74.111 77.189 87.383" stroke-miterlimit="2" stroke-width="0" fill="url(#7828c463-2fb0-44ce-bb64-9088ea2c85d3)"/>
  <polygon id="polygon233" style="font-variant-ligatures:normal" transform="matrix(1.67 0 0 1.67 568.74 194.74)" class="highlight" points="108.21 105.28 122.81 105.28 122.81 111.26 108.21 124.53" stroke-miterlimit="2" stroke-width="0" fill="url(#0f68ea85-798c-4ded-bb1f-ebe60617570d)"/>
  <polygon id="polygon244" style="font-variant-ligatures:normal" transform="matrix(1.67 0 0 1.67 568.74 194.74)" class="highlight" points="91.789 105.28 91.789 87.384 77.189 87.384 77.189 92.004" stroke-miterlimit="2" stroke-width="0" fill="url(#b4e39e90-a76f-40a8-b457-f139094e889c)"/>
  <polygon id="polygon255" style="font-variant-ligatures:normal" transform="matrix(1.67 0 0 1.67 568.74 194.74)" class="highlight" points="91.789 105.28 122.81 105.28 108.21 92.004 91.789 92.004" stroke-miterlimit="2" stroke-width="0" fill="url(#d45ee697-f8fe-4332-bbb7-28742d4f2050)"/>
  <polygon id="polygon264" style="font-variant-ligatures:normal" transform="matrix(1.67 0 0 1.67 568.74 194.74)" class="highlight" points="91.789 105.28 122.81 105.28 108.21 92.004 91.789 92.004" stroke-miterlimit="2" stroke-width="0" fill="url(#fa5149c9-ce61-4f4f-8d04-69e9a5a9fbc2)"/>
  <rect id="rect275" style="font-variant-ligatures:normal" height="22.165" width="48.466" stroke-miterlimit="2" y="380.54" x="700.99" stroke-width="0" class="highlight" fill="url(#b86f1446-9a15-4f5b-8c39-529aa1e3c4ff)"/>
  <path id="icon" stroke-width=".47823" fill="#3b2013" d="m656.65 320.07c-0.004 0-0.0944 0.15103-0.20102 0.33529-0.16033 0.27759-0.18772 0.34114-0.15794 0.36853 0.0196 0.0181 0.32306 0.19783 0.67406 0.39938 0.35098 0.20128 0.64451 0.36959 0.65225 0.37411 0.008 0.004 0.10211-0.14731 0.20953-0.33689s0.19091-0.34859 0.18533-0.35364c-0.006-0.005-0.24941-0.14624-0.54188-0.31482-0.29249-0.16831-0.59506-0.34327-0.67244-0.389-0.0765-0.0454-0.14347-0.0827-0.14825-0.0827zm-4.7236 0.41559c-0.0511-0.007-0.13082-0.002-0.17682 0.0114-0.046 0.0138-0.12018 0.0667-0.16485 0.11752-0.0447 0.0508-0.0891 0.13507-0.0989 0.18719-0.012 0.0635-0.003 0.1348 0.0285 0.2159 0.0338 0.0883 0.0766 0.1404 0.15767 0.19171 0.0612 0.0388 3.8212 2.2122 8.3556 4.8301l8.2446 4.7595-5.5541 0.007c-3.0546 0.004-8.0557 0.004-11.114 0l-5.5604-0.007 3.0892-1.7815c1.9734-1.138 3.1261-1.8179 3.1918-1.8828 0.0622-0.0612 0.12045-0.15449 0.14758-0.23612 0.0298-0.0899 0.0399-0.17762 0.0298-0.26244-0.008-0.0702-0.0391-0.17442-0.0683-0.23186-0.029-0.0572-0.0957-0.14145-0.14784-0.18718-0.0521-0.0457-0.16326-0.10317-0.24729-0.1279l-0.15288-0.0447-0.14625 0.0391c-0.10263 0.0274-1.3508 0.73576-4.1878 2.3771l-4.0416 2.3383-4.7728 0.0133-4.7728 0.0133-0.11195 0.0598c-0.0614 0.0327-0.14305 0.0992-0.18161 0.1473-0.0383 0.0481-1.1194 1.9057-2.4024 4.128l-2.3324 4.0405-4.0791 2.3564c-3.2718 1.8897-4.099 2.3784-4.1783 2.4678-0.0681 0.0766-0.10822 0.15475-0.12843 0.24941-0.0215 0.10051-0.0274 4.9798-0.0215 17.953l0.008 17.815 0.0574 0.10636c0.0316 0.0585 0.0976 0.14385 0.14624 0.18959 0.0489 0.0457 1.7581 1.0463 3.798 2.2237 2.0402 1.1771 8.9634 5.1735 15.385 8.8807 6.4216 3.7071 11.72 6.7554 11.776 6.7736 0.055 0.0181 0.1574 0.0276 0.22734 0.0208 0.0699-0.007 0.18532-0.0426 0.25605-0.0798 0.071-0.0372 1.9238-1.104 4.1174-2.3707l3.9884-2.3029h3.9818c2.1899 0 3.9812 0.009 3.9807 0.0199-0.00048 0.0109-3.7249 2.1676-8.2762 4.7923-4.9234 2.8395-8.3145 4.811-8.3723 4.8674-0.0625 0.0606-0.10423 0.13056-0.1162 0.1941-0.0128 0.0686-0.005 0.13668 0.0266 0.21777 0.0261 0.0686 0.0806 0.14332 0.12949 0.17842 0.063 0.045 0.12099 0.0601 0.23053 0.0601l0.14624-0.00027 0.34567-0.20367c0.19011-0.11194 2.3199-1.343 4.7329-2.7355s4.5369-2.618 4.7196-2.7238c0.18294-0.10556 1.5408-0.88969 3.0179-1.7424 1.4771-0.85244 2.7932-1.6124 2.9248-1.6884 0.13162-0.0761 1.0649-0.61395 2.074-1.1957 1.0091-0.58176 2.0979-1.2101 2.4196-1.3962 0.32173-0.18613 1.0099-0.58392 1.5289-0.88357 0.51931-0.29993 3.0019-1.7336 5.5173-3.186 2.5154-1.4523 4.8487-2.7994 5.1849-2.9934 0.33635-0.1941 1.2393-0.71524 2.0067-1.1585 1.1237-0.64876 1.4074-0.82374 1.4582-0.89873 0.0526-0.0776 0.0611-0.11832 0.0524-0.24568-0.008-0.1154-0.0266-0.16938-0.0755-0.22176-0.0356-0.0383-0.0997-0.0875-0.14251-0.10982-0.0492-0.0255-0.1186-0.0356-0.19065-0.0274-0.0896 0.0101-0.86177 0.44484-3.685 2.0748-1.9644 1.134-5.7067 3.295-8.3168 4.8019-2.6097 1.5068-4.7489 2.736-4.7534 2.7312-0.005-0.005 0.88807-1.5618 1.9844-3.4604l1.9929-3.4516 0.43421-0.25127c0.2385-0.138 1.2178-0.70328 2.1756-1.2564 0.95803-0.55307 2.5911-1.4951 3.6294-2.0934 1.2005-0.69185 1.924-1.1244 1.9876-1.1883 0.0625-0.0627 0.11433-0.15023 0.13959-0.23478 0.0348-0.11753 0.0399-0.72853 0.0399-4.8344v-4.6997l2.3303-4.0358c1.2816-2.2194 2.3476-4.0772 2.3691-4.1285 0.0255-0.0609 0.0353-0.15316 0.0287-0.26696l-0.0101-0.17389-4.4343-7.6789c-2.4388-4.2235-4.441-7.6961-4.4492-7.7176-0.0128-0.0338 0.51161-0.0388 4.1145-0.0388h4.1291l0.1146-0.0556c0.063-0.0306 0.15475-0.1021 0.20367-0.15927 0.0487-0.0572 0.10264-0.15023 0.11965-0.20687 0.017-0.0566 0.0308-0.1481 0.0308-0.20314 0-0.055-0.0138-0.14651-0.0308-0.20314-0.017-0.0566-0.0705-0.14943-0.11885-0.2058-0.0484-0.0566-0.14544-0.13002-0.21511-0.16326l-0.12709-0.0604-4.4955-0.013-4.4952-0.0133-3.7294-6.4599c-2.0511-3.5531-3.7254-6.4632-3.7206-6.4671 0.004-0.004 2.4733 1.4178 5.4857 3.1594l5.4776 3.1665 0.14624 0.00052c0.10982 0.00053 0.16725-0.0144 0.23053-0.0596 0.0489-0.0351 0.10344-0.10981 0.12949-0.17841 0.0303-0.0795 0.0394-0.1497 0.0271-0.21458-0.0101-0.0529-0.0561-0.13667-0.10291-0.18612-0.0537-0.0569-1.6642-1.0011-4.379-2.5672-2.3617-1.3627-5.1854-2.9921-6.2753-3.6212-1.0894-0.62882-3.2553-1.8791-4.8129-2.7781-1.5574-0.89926-3.1846-1.8384-3.6162-2.0873-0.43128-0.24888-1.0056-0.58071-1.2763-0.73757-0.27069-0.15661-0.84475-0.48846-1.2763-0.73733-0.43128-0.24861-1.556-0.89792-2.4994-1.4425-0.94312-0.54479-2.1756-1.2566-2.7387-1.5818-0.56287-0.32545-1.544-0.89156-2.1803-1.2582-0.68573-0.39512-1.1944-0.67191-1.2497-0.68013zm-14.046 11.603c1.8512 0 3.3593 0.006 3.3513 0.0144-0.008 0.008-2.2731 1.3183-5.0338 2.9121-2.7605 1.5938-5.0238 2.8932-5.0295 2.8879-0.006-0.006 0.72136-1.2771 1.615-2.8259 0.89367-1.5486 1.6488-2.8544 1.6778-2.902l0.0529-0.0864zm18.645 0.007 12.722 0.006 3.7699 6.5278c2.0734 3.5901 3.7701 6.5388 3.7704 6.5517 0.00027 0.0146-2.7794 0.0173-6.9726 0.007-3.8352-0.01-9.0882-0.0255-11.673-0.0351l-4.6997-0.0175-0.49668-0.86655c-0.34061-0.59429-0.535-0.90538-0.61821-0.98993-0.076-0.0771-0.16139-0.13427-0.22787-0.15262-0.071-0.0197-0.5347-0.0295-1.3959-0.0295-0.8445 0-1.3255 0.0101-1.3933 0.0287-0.0577 0.0162-0.15475 0.0779-0.21883 0.1396-0.0816 0.0787-0.28345 0.40336-0.69879 1.1253-0.3212 0.55809-0.61074 1.0668-0.64321 1.13-0.0423 0.0816-0.0596 0.16192-0.0596 0.27493-0.00027 0.10024 0.0173 0.1941 0.0471 0.2526 0.0261 0.0513 0.31828 0.5645 0.64934 1.141 0.3313 0.57622 0.63786 1.0835 0.68147 1.1274 0.0436 0.0436 0.12736 0.1013 0.18613 0.12816l0.10689 0.0487h2.6855l0.10955-0.05c0.0603-0.0274 0.14757-0.0899 0.19357-0.1388 0.046-0.0492 0.31428-0.49004 0.59616-0.98008l0.51237-0.89074 4.1868 0.002c2.3027 0.001 7.7234 0.0114 12.046 0.0231l7.8592 0.0215 4.5245 7.8372 4.5245 7.8372-1.6562 2.8684c-0.91122 1.5776-1.6704 2.8924-1.6871 2.9216-0.0237 0.0407-0.0311-0.27201-0.0317-1.3361l-0.00096-1.3893h0.2877c0.1933 0 0.32864-0.0138 0.41187-0.0423 0.084-0.0288 0.16166-0.084 0.2401-0.17151 0.0675-0.075 0.12949-0.17708 0.14757-0.24356 0.0237-0.0854 0.0295-0.77855 0.0239-2.7355l-0.008-2.6212-0.0806-0.13002c-0.0526-0.0794-0.13391-0.15973-0.21521-0.20946l-0.12912-0.0803-1.5064-0.008c-1.0474-0.006-1.5353 0.00081-1.6058 0.0215-0.0558 0.0162-0.15049 0.0737-0.21032 0.12763-0.0601 0.054-0.13401 0.15183-0.16459 0.21777l-0.0556 0.11965-0.007 2.5518c-0.005 1.7791 0.001 2.5946 0.0218 2.6927 0.0173 0.0832 0.0643 0.18719 0.11487 0.2534 0.0471 0.062 0.13906 0.14225 0.20421 0.17895l0.11832 0.0665 0.56503 0.009 0.56502 0.009v4.9884l-4.0294 6.9792-4.0291 6.9792-0.68387 0.39459c-0.37598 0.21671-3.5188 2.0312-6.984 4.032l-6.3002 3.6374h-4.9033l-0.0101-0.44538c-0.009-0.39458-0.0167-0.45787-0.0683-0.55546-0.0319-0.0606-0.10849-0.15342-0.17018-0.20633-0.0617-0.0527-0.15475-0.10769-0.20686-0.12231-0.0598-0.0165-1.0572-0.0263-2.6874-0.0263s-2.6276 0.01-2.6874 0.0263c-0.0521 0.0146-0.14518 0.0697-0.20687 0.12231-0.0617 0.0529-0.13879 0.14571-0.17097 0.20633l-0.0631 0.11478v2.978l0.0487 0.12577c0.0303 0.0787 0.0939 0.16592 0.16937 0.23239 0.0667 0.0585 0.16432 0.11859 0.2175 0.13322 0.0614 0.0173 1.0386 0.0269 2.7094 0.0269 2.301 0.00027 2.6252-0.005 2.7121-0.0409 0.0545-0.0226 0.1388-0.0795 0.18772-0.1263 0.0487-0.0468 0.11433-0.13295 0.14598-0.19145 0.0508-0.0944 0.0582-0.15687 0.0665-0.55173l0.009-0.44537h1.3462c1.1375 0 1.3401 0.006 1.3071 0.0361-0.0213 0.0199-1.3279 0.77985-2.9033 1.6884-1.5754 0.90883-2.8746 1.6523-2.8871 1.6523s-0.9729-0.54853-2.1343-1.2189c-1.1614-0.67004-5.4857-3.1665-9.61-5.5474-4.124-2.3806-7.9171-4.5707-8.4288-4.8664-0.51185-0.29594-1.2476-0.72083-1.6352-0.94445-0.38741-0.22335-1.279-0.73785-1.9809-1.1431-0.70194-0.40522-1.5036-0.86812-1.7815-1.0285-0.27786-0.16034-1.0825-0.62485-1.7879-1.0319-0.70567-0.40735-1.2784-0.74503-1.2731-0.75034 0.005-0.005 1.2048-0.0213 2.6653-0.0356 1.4606-0.0141 6.5866-0.0611 11.39-0.10449 4.8043-0.0433 9.6741-0.087 10.822-0.0965l2.0873-0.0178 0.22468 0.39592c0.12338 0.21776 0.35976 0.62934 0.52486 0.91441 0.18931 0.32652 0.33928 0.5536 0.40495 0.61343 0.0574 0.0521 0.15156 0.10901 0.20926 0.1263 0.0744 0.0223 0.48579 0.0314 1.4193 0.0314h1.3146l0.1388-0.0691c0.0763-0.0383 0.16724-0.10689 0.20181-0.15289 0.0346-0.046 0.34433-0.57249 0.68865-1.1699 0.39964-0.69343 0.63231-1.1244 0.64374-1.192 0.01-0.0582 0.0101-0.15714 0.00096-0.21962-0.0122-0.0811-0.19677-0.42623-0.64293-1.2011-0.34407-0.59798-0.65623-1.1274-0.69372-1.1766-0.0372-0.0489-0.12922-0.11779-0.20394-0.15263l-0.13614-0.0633-1.3428 0.00027-1.3428 0.00026-0.10636 0.0495c-0.0585 0.0269-0.14145 0.0864-0.18453 0.13215-0.0428 0.0457-0.30764 0.481-0.58841 0.96731l-0.51027 0.8841-0.24914 0.007c-0.13693 0.004-6.172 0.0606-13.411 0.12657-7.2389 0.0657-13.524 0.11939-13.966 0.11939h-0.80433l0.007-17.13 0.007-17.13 1.3826-0.7985c0.76048-0.43899 2.0646-1.1917 2.8982-1.6722 0.8336-0.48071 1.5268-0.88037 1.5406-0.88807 0.0138-0.008 0.00026 0.0269-0.03 0.0768-0.0306 0.0503-0.68654 1.1856-1.4582 2.5231-0.77191 1.3375-1.4268 2.4853-1.4555 2.5505-0.0407 0.092-0.0492 0.15448-0.0383 0.27626 0.01 0.10848 0.0378 0.19543 0.0904 0.28052 0.0449 0.0726 0.12816 0.15528 0.20288 0.20128 0.0843 0.0521 0.17336 0.0824 0.26536 0.0901 0.0763 0.006 0.19118-0.003 0.25526-0.0199 0.0723-0.0194 0.16007-0.0734 0.2316-0.14252 0.0885-0.0848 0.58578-0.92609 2.125-3.5941 1.1053-1.9158 2.0242-3.4978 2.0418-3.5159 0.0176-0.0178 0.66607-0.39884 1.4409-0.84632 0.77506-0.44777 1.5826-0.91389 1.7945-1.0359 0.21191-0.12231 2.7068-1.5626 5.5441-3.2014l5.1582-2.9791zm-5.8152 12.284 0.82748 0.007 0.40735 0.70409c0.22415 0.38741 0.40734 0.71098 0.40734 0.71926 0 0.008-0.18373 0.33157-0.40841 0.71844l-0.40815 0.70328h-1.6618l-0.41214-0.71098-0.41213-0.71074 0.28371-0.49296c0.15608-0.27094 0.34353-0.59429 0.41665-0.71844l0.13295-0.22601zm31.635 15.868h0.71792v3.6959h-1.4358v-3.6959zm-0.40549 12.524c0.004-0.00026 0.007 1.5175 0.007 3.3726v3.3731l-2.9046 1.6767c-1.5978 0.92241-2.9092 1.6725-2.9147 1.6669-0.006-0.006 1.2986-2.2776 2.898-5.0491 1.5993-2.7717 2.911-5.0396 2.9147-5.04zm-28.966 5.2653h0.83092l0.39139 0.67593c0.21512 0.37145 0.39831 0.69453 0.40709 0.71763 0.0101 0.0263-0.13667 0.30684-0.3914 0.74718l-0.40761 0.70514-0.83489-0.007-0.83518-0.007-0.31774-0.54509c-0.17469-0.29993-0.35843-0.61739-0.40788-0.70596l-0.0904-0.16086 0.26829-0.46399c0.14784-0.25526 0.33317-0.57459 0.4124-0.70993l0.14412-0.24595zm19.619 8.3518c0.01-0.001-0.41586 0.74824-0.94579 1.6658-0.52968 0.91762-1.2896 2.2338-1.6884 2.9248l-0.72537 1.2564-3.3675-0.00096c-2.9174-0.00095-3.3612-0.006-3.3178-0.0388 0.0274-0.0207 0.63174-0.37358 1.3428-0.78386 0.71098-0.41054 2.9559-1.7081 4.9889-2.8836 2.0328-1.1755 3.7039-2.1383 3.7135-2.1399zm-20.717 5.7674h1.8613v1.4092h-3.7225v-1.4092zm8.1586-52.265c-0.648-0.001-2.1296 0.007-3.2923 0.0191-1.1625 0.0122-2.5598 0.0298-3.1051 0.0391l-0.99098 0.017-0.0832 0.0569c-0.046 0.0311-0.10742 0.0891-0.13667 0.12869-0.0346 0.0465-0.0534 0.11354-0.0534 0.18932 0 0.0673 0.0218 0.15581 0.0513 0.20713 0.0308 0.0542 0.0989 0.113 0.17071 0.1481l0.11912 0.058 3.4965-0.0372c1.9232-0.0205 3.8196-0.0407 4.2144-0.0449l0.71791-0.007 0.0931-0.058c0.0513-0.0319 0.11407-0.0936 0.1396-0.1372 0.0279-0.0473 0.0465-0.13322 0.0465-0.21538 0-0.12231-0.0109-0.14837-0.1045-0.24861l-0.1045-0.11194zm9.7185 1.8014c-0.7578 0.002-3.9384 0.0194-7.0682 0.0383-3.1296 0.0189-5.9974 0.038-6.3728 0.0425l-0.68282 0.008-0.0734 0.0548c-0.0402 0.0303-0.0952 0.0843-0.12205 0.12045-0.0271 0.0359-0.0561 0.10902-0.0649 0.16273-0.0111 0.0699 0.00027 0.13029 0.0407 0.21377 0.0375 0.0774 0.0917 0.13641 0.16167 0.17576l0.10529 0.059 7.6789-0.0417c4.2232-0.0229 7.7176-0.0479 7.7659-0.0556 0.0479-0.007 0.12843-0.0503 0.17922-0.0947 0.0548-0.0481 0.10343-0.12311 0.11992-0.1848 0.0194-0.0715 0.0196-0.13534 0.00095-0.20501-0.0149-0.0556-0.0601-0.13188-0.10051-0.16964-0.0407-0.0375-0.0997-0.0819-0.13161-0.0984-0.0412-0.021-0.46239-0.0287-1.4358-0.0258zm-25.233 1.6977h-1.1686l-0.14305 0.0731c-0.0787 0.0402-0.17549 0.11486-0.21538 0.16618-0.0396 0.0513-0.30179 0.49243-0.58257 0.98089-0.28052 0.48818-0.5326 0.93675-0.55996 0.99711-0.0274 0.0601-0.0497 0.16911-0.0497 0.24223 0 0.075 0.0226 0.18267 0.0521 0.24728 0.0285 0.063 0.28716 0.52356 0.57487 1.0237 0.2877 0.50013 0.55441 0.94364 0.59243 0.98592 0.038 0.042 0.12896 0.10476 0.20208 0.13932l0.13295 0.0628 1.1667 0.00026c0.82772 0.00027 1.1979-0.009 1.2728-0.0314 0.0582-0.0175 0.15768-0.0803 0.22069-0.1396 0.0832-0.0784 0.26297-0.3664 0.65728-1.0535 0.29833-0.51983 0.55627-0.98538 0.57325-1.0343 0.0173-0.0487 0.0311-0.13906 0.0311-0.20048 0-0.0614-0.0138-0.15183-0.0308-0.20048-0.0173-0.0489-0.27547-0.51452-0.57378-1.0343-0.39272-0.68415-0.57435-0.9753-0.65727-1.0535-0.063-0.0593-0.1622-0.12204-0.22043-0.13959-0.075-0.0223-0.44617-0.0316-1.2747-0.0316zm0.0234 1.2824 0.69343 0.007 0.27759 0.47861c0.15262 0.26323 0.30525 0.52648 0.33928 0.58497l0.0614 0.10635-0.33795 0.58497-0.33768 0.58497h-1.4002l-0.33954-0.58497-0.33955-0.58497 0.0476-0.0798c0.0261-0.0439 0.13082-0.22336 0.23293-0.39885 0.1021-0.17549 0.23584-0.40602 0.29727-0.51237l0.1119-0.19368zm-6.094-1.0076c-0.54829-0.003-1.0471 0.006-1.108 0.0181-0.0611 0.0125-0.14491 0.0404-0.18612 0.0622-0.0415 0.0215-0.10742 0.0731-0.14651 0.11461-0.0394 0.0415-0.20767 0.3087-0.37385 0.594-0.16646 0.28504-0.39752 0.68573-0.51372 0.89046l-0.21111 0.37172 0.00081 0.17337c0.00081 0.11539 0.0173 0.2042 0.05 0.26616 0.0269 0.0513 0.26589 0.4685 0.53097 0.92719 0.40842 0.70701 0.49827 0.84555 0.59109 0.90934 0.0601 0.0412 0.16167 0.0885 0.22601 0.10476 0.0782 0.0197 0.45043 0.0266 1.1271 0.0213l1.0104-0.008 0.10635-0.0574c0.0585-0.0316 0.14385-0.0976 0.18985-0.14625 0.046-0.0489 0.29567-0.45707 0.55517-0.90695 0.25925-0.4499 0.48737-0.86282 0.50678-0.91734 0.0194-0.0545 0.0354-0.14092 0.0354-0.19224 0-0.0513-0.0152-0.13588-0.034-0.18852-0.0189-0.0524-0.24755-0.46531-0.50812-0.91733-0.26084-0.45202-0.51132-0.86177-0.55651-0.91069-0.0452-0.0487-0.13002-0.1146-0.18852-0.14624l-0.10616-0.0579zm-0.0799 1.2673h0.52806l0.0516 0.0731c0.0282 0.0401 0.15582 0.25606 0.28371 0.47995l0.23239 0.40655-0.2744 0.47755-0.2744 0.47728h-1.0932l-0.2744-0.47833-0.2744-0.47808 0.23345-0.40601c0.12816-0.22309 0.25606-0.43873 0.28371-0.4789l0.0503-0.0731zm-6.1156-0.97506c-0.4898-0.003-0.92666 0.005-0.97051 0.0154-0.0439 0.0112-0.117 0.0394-0.1622 0.063-0.0455 0.0237-0.11805 0.0835-0.16139 0.13295-0.0434 0.0494-0.22708 0.34619-0.40815 0.65942-0.18108 0.31323-0.37598 0.65914-0.43288 0.76899l-0.1037 0.19916 0.01 0.1731 0.01 0.17309 0.41027 0.71419c0.22548 0.39299 0.44245 0.75938 0.48234 0.81418 0.0415 0.0572 0.13162 0.12923 0.21245 0.16937l0.14108 0.0698h1.8402l0.13879-0.0691c0.0763-0.0383 0.16725-0.10689 0.20181-0.15289 0.0346-0.046 0.25101-0.41053 0.481-0.81016l0.41826-0.72614 0.0133-0.16645c0.0104-0.12896 0.002-0.19304-0.0385-0.28424-0.0287-0.0646-0.2284-0.42277-0.44405-0.79558-0.21537-0.37305-0.42383-0.71208-0.46292-0.75354-0.0394-0.0415-0.11912-0.10131-0.17762-0.13295l-0.10617-0.0569zm-0.0532 1.2683h0.41214l0.19942 0.34832c0.10982 0.19144 0.1957 0.36188 0.19091 0.37837-0.005 0.0168-0.0939 0.17682-0.19836 0.35603l-0.18984 0.32572h-0.82748l-0.19117-0.32891c-0.10503-0.18081-0.19438-0.34088-0.19889-0.35577-0.004-0.0149 0.0822-0.184 0.19171-0.37544l0.19942-0.34832zm19.668 4.2298c-3.8345 0.002-7.0232 0.013-7.0868 0.0255-0.063 0.0125-0.15608 0.0481-0.2066 0.0792-0.0505 0.0314-0.11992 0.0947-0.15449 0.14065-0.0346 0.0463-1.606 2.7581-3.4922 6.0266-1.8863 3.2684-3.4665 6.0084-3.5114 6.0888-0.0452 0.0803-0.0896 0.20607-0.0992 0.27919-0.0114 0.0875-0.004 0.17017 0.0205 0.24197 0.0207 0.0598 1.6142 2.8419 3.5412 6.182 2.6704 4.629 3.5292 6.0969 3.6114 6.173 0.0654 0.0611 0.16114 0.11566 0.24436 0.13985 0.12018 0.0351 0.99629 0.0391 7.1959 0.033l7.0591-0.007 0.12949-0.0665c0.0713-0.0367 0.16272-0.10848 0.20341-0.15953 0.0407-0.0513 1.614-2.7613 3.4965-6.0223 1.8825-3.2612 3.4628-6.0022 3.5117-6.0907 0.0489-0.0888 0.0963-0.21458 0.10529-0.27946 0.009-0.0649 0.003-0.16591-0.0125-0.22415-0.016-0.0582-1.6175-2.8576-3.5592-6.2203-3.0992-5.3681-3.5439-6.1247-3.6422-6.1997-0.0625-0.0479-0.17123-0.0981-0.24728-0.11433-0.096-0.0205-2.1575-0.0282-7.1069-0.0261zm0.0138 1.28 6.5943 0.007 3.2934 5.7033c1.8113 3.1367 3.2934 5.7091 3.2936 5.7167 0.00026 0.007-1.4816 2.5797-3.2928 5.7167l-3.295 5.7005h-13.199l-3.2964-5.7052-3.296-5.71 3.2472-5.6263c1.7857-3.0941 3.2716-5.667 3.3012-5.7177l0.0545-0.0918zm-0.0117 2.3343c-4.1791 0.00081-5.1003 0.007-5.1658 0.0364-0.0439 0.0194-0.10503 0.0638-0.13614 0.0986-0.0308 0.0348-1.133 1.9298-2.4494 4.2112-1.3162 2.2814-2.4544 4.2551-2.5294 4.3862-0.10822 0.18879-0.1364 0.26271-0.1364 0.35657 0 0.0848 0.0255 0.16538 0.0896 0.28158 0.0492 0.0896 1.1878 2.0649 2.53 4.3894 1.3422 2.3247 2.4529 4.2466 2.468 4.271 0.0154 0.0247 0.0721 0.0694 0.12603 0.0997l0.0971 0.0574h10.224l0.0981-0.0553c0.054-0.0303 0.1146-0.0811 0.13454-0.113 0.0202-0.0317 1.167-2.0142 2.5483-4.405 2.2572-3.9068 2.513-4.3612 2.5241-4.4827 0.009-0.0965-0.00096-0.16113-0.0343-0.22601-0.0255-0.0497-1.1652-2.029-2.5321-4.3982-1.3672-2.3691-2.5111-4.336-2.5422-4.3708-0.0308-0.0348-0.0949-0.0795-0.14198-0.0997-0.0715-0.0303-0.92078-0.0362-5.1716-0.0354zm0.0128 0.80328 4.7918 0.007 2.3872 4.1346c1.313 2.2739 2.384 4.1477 2.3803 4.1636-0.004 0.016-1.0779 1.8852-2.3869 4.1538l-2.3798 4.1246-4.7995-0.00026-4.7995-0.00027-2.3787-4.1253c-1.3085-2.2689-2.3787-4.144-2.3787-4.1668 0.00026-0.0226 1.0569-1.8719 2.3484-4.1094 1.2914-2.2375 2.3649-4.0951 2.3859-4.128l0.0377-0.0601zm0.28238 2.5901-0.17602-0.0109-0.0194 0.62328c-0.0109 0.34273-0.0133 0.62963-0.005 0.63733 0.008 0.008 0.14624 0.0247 0.30817 0.0378 0.16167 0.013 0.37491 0.0407 0.47383 0.0614 0.0989 0.0207 0.21059 0.0457 0.24834 0.0553l0.0686 0.0175 0.16326-0.60596c0.0899-0.33343 0.15475-0.61424 0.14412-0.62433-0.0104-0.0101-0.13268-0.0423-0.27175-0.0715-0.13879-0.0295-0.36613-0.0662-0.5052-0.0814-0.13879-0.0152-0.33183-0.0327-0.42862-0.0385zm-1.6244 0.1816c-0.004-0.004-0.0973 0.0202-0.20713 0.0529-0.10955 0.0327-0.27999 0.0904-0.37837 0.12843-0.0984 0.0378-0.28982 0.12284-0.42543 0.18879-0.1356 0.0659-0.26243 0.13082-0.28211 0.14411-0.0276 0.0186 0.0335 0.14491 0.27467 0.56608 0.1707 0.29807 0.31375 0.54508 0.31747 0.54881 0.004 0.004 0.13135-0.0524 0.28371-0.12497 0.15209-0.0723 0.37837-0.16405 0.50252-0.20341 0.12444-0.0396 0.22947-0.0745 0.23346-0.0776 0.004-0.003-0.0643-0.27812-0.15183-0.61127-0.0878-0.3329-0.16299-0.60811-0.16698-0.61184zm4.2147 0.58894c-0.0208-0.012-0.0976 0.0939-0.22308 0.30791-0.1053 0.17974-0.25021 0.42649-0.322 0.54905-0.0715 0.12231-0.12683 0.22521-0.12231 0.2284 0.004 0.003 0.0859 0.058 0.18081 0.12098 0.0952 0.0633 0.2627 0.18932 0.37225 0.28025 0.10981 0.0909 0.22255 0.19118 0.25074 0.22229l0.0513 0.0572 0.44058-0.43288c0.24197-0.23797 0.44378-0.44617 0.4483-0.46238 0.004-0.0162-0.0614-0.0928-0.14598-0.17018-0.0848-0.0776-0.23185-0.20341-0.32705-0.27972-0.0949-0.0763-0.26243-0.19809-0.37225-0.27068-0.10955-0.0726-0.21378-0.14012-0.23133-0.15023zm-6.6875 0.83307c-0.007 0-0.0745 0.0628-0.14863 0.1396-0.0742 0.0768-0.19836 0.21723-0.27626 0.31242-0.0776 0.0949-0.21112 0.27892-0.29621 0.40842-0.0854 0.12949-0.15501 0.24409-0.15501 0.25473 0 0.0106 0.24595 0.16006 0.54642 0.33263 0.30073 0.1723 0.54905 0.30897 0.55202 0.30339 0.003-0.005 0.075-0.11327 0.15927-0.2401 0.0846-0.12683 0.23106-0.31403 0.32545-0.41613 0.0944-0.1021 0.17177-0.19596 0.17177-0.20846s-0.19464-0.21723-0.43235-0.45468c-0.23768-0.2372-0.43853-0.43184-0.44666-0.43184zm8.6449 1.1965c-0.009 0-0.24861 0.13215-0.53389 0.29381-0.28504 0.1614-0.52754 0.30285-0.53897 0.31429-0.0114 0.0114 0.033 0.13347 0.0987 0.27121 0.0657 0.138 0.15714 0.36613 0.20341 0.50706l0.084 0.25606 0.5084-0.13082c0.27972-0.0718 0.5536-0.14278 0.60836-0.15741 0.0569-0.0152 0.0997-0.0433 0.0997-0.0651 0-0.0213-0.0428-0.16725-0.0949-0.32492-0.0521-0.15741-0.16778-0.43873-0.25685-0.62514-0.0893-0.1864-0.16938-0.33902-0.17788-0.33902zm-10.057 1.2763c-0.0298 0-0.0534 0.0569-0.0856 0.20607-0.0245 0.11327-0.0617 0.33768-0.083 0.49855-0.0215 0.16087-0.0391 0.38528-0.0394 0.49855l0.001 0.20612h1.2681l0.017-0.29913c0.01-0.16459 0.0407-0.41214 0.0697-0.55039 0.029-0.13827 0.05-0.2534 0.0468-0.25606-0.003-0.002-0.2635-0.0718-0.57885-0.15395-0.31535-0.0824-0.59161-0.1497-0.61423-0.1497zm9.9156 1.4627c-0.34034-0.00027-0.41878 0.007-0.41878 0.0367 0 0.0205-0.0125 0.16113-0.0279 0.31242-0.0154 0.15156-0.0513 0.38236-0.0798 0.51266-0.0282 0.13056-0.0487 0.23904-0.0449 0.24117 0.003 0.002 0.2752 0.0771 0.60357 0.16725 0.43287 0.11832 0.60276 0.15475 0.61663 0.13215 0.0106-0.017 0.0385-0.1154 0.0622-0.21831 0.0234-0.1029 0.059-0.30099 0.0792-0.43978 0.0202-0.13907 0.0444-0.3555 0.054-0.48129l0.0173-0.2284-0.22122-0.0173c-0.12178-0.01-0.41001-0.0173-0.64025-0.0173zm-1.0114 2.1269c-0.009 0-0.067 0.0747-0.12843 0.16619-0.0611 0.0915-0.16538 0.23186-0.23159 0.31242-0.0659 0.0803-0.16752 0.1965-0.22574 0.25765l-0.10583 0.11142 0.43341 0.45361c0.2385 0.24941 0.44244 0.45362 0.45308 0.45362 0.0109 0 0.1029-0.0928 0.20447-0.20607 0.10131-0.11327 0.24436-0.28398 0.31748-0.3789 0.0734-0.0952 0.18294-0.24701 0.24382-0.33769 0.0609-0.0904 0.11062-0.17443 0.11062-0.18665 0-0.0122-0.23718-0.16247-0.52729-0.33397-0.29009-0.17123-0.535-0.31163-0.54404-0.31163zm-1.5877 1.5193c-0.007 0.00096-0.1388 0.0596-0.29249 0.13003-0.15342 0.0705-0.37331 0.15555-0.48846 0.18931-0.11487 0.0335-0.21431 0.0744-0.22043 0.0909-0.006 0.0165 0.0433 0.25021 0.11062 0.5193 0.0673 0.26909 0.13427 0.53418 0.14863 0.58894 0.0154 0.0585 0.0426 0.0997 0.0657 0.0997 0.0215 0 0.18559-0.0489 0.36454-0.10875 0.17894-0.0596 0.45973-0.17257 0.62432-0.25074 0.16459-0.0782 0.29913-0.15049 0.29913-0.16113 0-0.0104-0.13454-0.26217-0.29913-0.55919-0.16458-0.29727-0.30498-0.53949-0.31242-0.53844zm7.1777 18.343h-0.63126l0.00027 0.57832c0.00026 0.31801 0.008 0.60519 0.0165 0.63814l0.016 0.0598h0.62035c0.34114 0 0.6238-0.009 0.6283-0.0199 0.004-0.0109 0.004-0.29807 0.00027-0.63815l-0.008-0.6182zm-2.0567 0.0327c-0.0745 0.003-0.36002 0.01-0.63418 0.0138l-0.49855 0.008v0.39432c0 0.2167 0.008 0.5052 0.0176 0.64106l0.0175 0.24729 0.62141-0.0133c0.34167-0.007 0.62566-0.0181 0.63126-0.0237 0.005-0.006 0.003-0.29461-0.005-0.64188l-0.0146-0.6315zm-3.0472 0.0471h-0.63815l0.00027 0.41878c0 0.23027 0.008 0.51744 0.017 0.63815l0.0173 0.21936h1.2763l-0.0173-0.24329c-0.01-0.13401-0.0173-0.42118-0.0173-0.63815v-0.39485zm-2.1644 0.0324c-0.13295 0.003-0.41852 0.01-0.63418 0.0141l-0.39219 0.008v0.39406c0 0.2167 0.008 0.50548 0.0176 0.64159l0.0176 0.24728 0.62619-0.0186c0.3446-0.0101 0.62858-0.0208 0.63126-0.0239 0.003-0.003-0.001-0.28955-0.01-0.6368l-0.0146-0.6315zm-2.9445 0.0473h-0.62791l0.00027 0.41879c0 0.23026 0.008 0.51744 0.017 0.63814l0.0173 0.21937h0.61882c0.34061 0 0.62457-0.009 0.63121-0.0199 0.006-0.0109 0.005-0.29806-0.002-0.63814l-0.0141-0.61821zm-2.267 0.0322c-0.19145 0.003-0.47702 0.01-0.63418 0.0143l-0.28584 0.009v0.39379c0 0.2167 0.008 0.50439 0.0175 0.63948l0.0173 0.24543 0.62753-0.0186c0.34486-0.0104 0.62911-0.0205 0.63121-0.0223 0.002-0.001-0.003-0.28743-0.0106-0.6347l-0.0146-0.6315zm-2.8381 0.0476h-0.62791l0.00027 0.41879c0 0.23026 0.008 0.51744 0.017 0.63814l0.0173 0.21937h0.61931c0.34061 0 0.62456-0.009 0.63121-0.0199 0.006-0.0109 0.005-0.29807-0.002-0.63814l-0.0141-0.61821zm-2.3734 0.0319c-0.24994 0.003-0.53552 0.009-0.63418 0.0144l-0.17948 0.009v0.39353c0 0.21644 0.008 0.50228 0.017 0.63523l0.0173 0.24169 0.62753-0.0152c0.3454-0.009 0.62963-0.0165 0.63179-0.0184 0.002-0.001-0.003-0.28717-0.0106-0.63442l-0.0146-0.6315zm-2.1538 0.0274c-0.0306 0.003-0.31614 0.01-0.63417 0.0138l-0.57832 0.008v0.39432c0 0.21671 0.008 0.50468 0.0176 0.64002l0.0173 0.24569 0.61849-0.009c0.34035-0.005 0.62433-0.0152 0.6315-0.0223 0.007-0.007 0.006-0.29753-0.002-0.64479l-0.0146-0.6315zm-3.0578 0.0511c-0.30844 0.002-0.59401 0.009-0.63418 0.0152l-0.0731 0.0109v0.39299c0 0.21617 0.007 0.4996 0.0168 0.62992l0.0168 0.23665 0.62805-0.009c0.3454-0.005 0.62992-0.0112 0.63203-0.0133 0.002-0.002-0.003-0.28849-0.0106-0.63575l-0.0146-0.6315zm-2.1538 0.0287c-0.0891 0.003-0.37464 0.009-0.63417 0.0138l-0.47197 0.008v0.39406c0 0.2167 0.008 0.50548 0.0176 0.64159l0.0176 0.24728 0.62351-0.0157c0.34274-0.009 0.62672-0.0194 0.63121-0.0239 0.004-0.004 0.001-0.29248-0.007-0.63972l-0.0146-0.6315zm23.34-62.71c-0.0104-0.004-0.10503 0.14412-0.21059 0.32918-0.12257 0.21511-0.18267 0.34593-0.16645 0.36215 0.0141 0.0141 0.32253 0.19703 0.68573 0.40682l0.65996 0.38102 0.19384-0.33688c0.10662-0.18533 0.19357-0.34301 0.19357-0.35019-0.00027-0.007-0.30126-0.18692-0.669-0.39884-0.36746-0.21218-0.67698-0.389-0.68707-0.39325zm2.7515 1.5898c-0.003 0-0.0912 0.14784-0.19543 0.32865-0.10397 0.18054-0.18879 0.33902-0.18826 0.35231 0.00048 0.013 0.29382 0.19118 0.65197 0.39592 0.35816 0.20473 0.66741 0.37597 0.6876 0.38022 0.0226 0.005 0.10954-0.11965 0.22813-0.32731 0.10556-0.18427 0.18773-0.33875 0.18241-0.34327-0.005-0.005-0.31349-0.1832-0.68497-0.39725-0.37145-0.21404-0.67803-0.38927-0.68147-0.38927zm2.8145 1.6257-0.0577-0.03-0.18825 0.32865c-0.10343 0.18081-0.18746 0.33928-0.18693 0.35231 0.00048 0.0128 0.29807 0.19383 0.66077 0.4023 0.36295 0.20846 0.6722 0.3789 0.68707 0.3789 0.0149 0 0.1138-0.15023 0.21962-0.3337 0.10583-0.18373 0.188-0.33715 0.18268-0.34141-0.005-0.004-0.29063-0.16937-0.63442-0.3672-0.3438-0.19782-0.65091-0.37331-0.68281-0.3898zm2.7254 1.5738c-0.0101-0.005-0.0234-0.00053-0.0298 0.0106-0.007 0.0114-0.0962 0.16592-0.19942 0.34407l-0.18745 0.32333 0.67243 0.38793c0.36986 0.21325 0.68444 0.38768 0.69931 0.38768 0.0149 0 0.11301-0.15076 0.21804-0.33503 0.10503-0.18453 0.18719-0.33795 0.18267-0.34114-0.004-0.003-0.30737-0.17735-0.67296-0.38688-0.3656-0.20952-0.67296-0.38528-0.68281-0.39059zm2.8047 1.6174-0.0585-0.0314-0.11114 0.19304c-0.0612 0.10609-0.14572 0.25021-0.18772 0.32014-0.0423 0.0699-0.0795 0.13879-0.083 0.15289-0.003 0.0141 0.30179 0.20394 0.67832 0.42197l0.68468 0.39618 0.1497-0.25659c0.0822-0.14119 0.17256-0.29487 0.20075-0.34167l0.0511-0.0848-0.0612-0.0388c-0.0338-0.0215-0.31854-0.18772-0.63283-0.36933-0.31429-0.1816-0.59798-0.34433-0.63016-0.36161zm2.7597 1.5924-0.0534-0.0287-0.15103 0.25978c-0.083 0.14278-0.17336 0.297-0.20102 0.343l-0.0497 0.0838 0.67167 0.38794c0.3696 0.21324 0.68229 0.39086 0.69506 0.39485 0.0128 0.004 0.11088-0.14544 0.21803-0.3321l0.19517-0.33928-0.0588-0.037c-0.0322-0.0202-0.31828-0.18693-0.63576-0.37039-0.31721-0.18347-0.60094-0.3462-0.63016-0.36189zm-57.153 32.092c-0.0598 0.00027-0.14491 0.0223-0.18878 0.0495-0.0439 0.0271-0.1037 0.0763-0.13295 0.10902l-0.0532 0.0598-0.007 10.454c-0.005 7.502 0.001 10.474 0.0221 10.524 0.0159 0.0388 0.055 0.0944 0.0867 0.12365 0.0316 0.0293 3.0791 1.7972 6.7717 3.9286 3.6927 2.1316 7.7363 4.466 8.9868 5.1878 1.9748 1.1402 2.2867 1.3122 2.38 1.3122 0.059 0 0.14916-0.0223 0.20022-0.0497 0.0577-0.0309 0.11619-0.0955 0.15501-0.17097 0.0492-0.0952 0.0585-0.14411 0.0447-0.22734-0.0109-0.0635-0.0518-0.14358-0.10237-0.19942-0.0564-0.0622-0.65942-0.4241-1.8129-1.0881-0.95057-0.54719-3.7443-2.1591-6.2088-3.5819-2.4641-1.4228-4.941-2.853-5.5039-3.1782-0.56292-0.32518-1.7416-1.0058-2.6191-1.5127l-1.5954-0.9213-0.0133-10.274-0.0133-10.274-0.0556-0.0752c-0.0306-0.0412-0.0952-0.10184-0.14358-0.13481-0.0561-0.038-0.12763-0.0598-0.19703-0.0598zm3.8751 27.58-0.0572-0.0367-0.31243 0.548c-0.26509 0.46505-0.30684 0.55331-0.2752 0.58286 0.0207 0.0191 0.26244 0.1622 0.53762 0.31748 0.27494 0.15555 0.50841 0.28264 0.5185 0.28238 0.0101-0.00027 0.15289-0.23851 0.31747-0.5294 0.16459-0.29088 0.29914-0.54082 0.29914-0.55546 0-0.0143-0.21831-0.14917-0.48526-0.2994-0.26696-0.15023-0.51104-0.28955-0.54269-0.30976zm4.3997 2.501c-0.0101-0.006-0.0657 0.071-0.12337 0.17017-0.0574 0.0989-0.19596 0.34141-0.30737 0.53844s-0.19889 0.36986-0.19411 0.38422c0.005 0.0141 0.25047 0.16246 0.54614 0.32971 0.29567 0.16724 0.54111 0.29939 0.54537 0.29381 0.004-0.006 0.14145-0.24675 0.30498-0.53576 0.16326-0.28902 0.297-0.53657 0.297-0.54986 0-0.0133-0.23638-0.15821-0.52514-0.32227-0.28876-0.16405-0.53337-0.30285-0.54351-0.30843zm4.4335 2.5247c-0.0154-0.003-0.15954 0.2284-0.32041 0.51476-0.16086 0.28664-0.29248 0.53791-0.29248 0.55838 0 0.0213 0.23372 0.17071 0.53179 0.34008 0.39432 0.22415 0.53925 0.29435 0.56048 0.27175 0.0157-0.0167 0.14651-0.24011 0.29036-0.49588 0.14411-0.25605 0.27759-0.49004 0.297-0.52036l0.0354-0.055-0.53709-0.30391c-0.29541-0.16725-0.54987-0.30658-0.56503-0.30977zm4.4346 2.5191c-0.0122 0.00027-0.15661 0.23851-0.3212 0.5294s-0.29914 0.53896-0.29887 0.5512c0 0.0123 0.23692 0.15688 0.5262 0.32147 0.28929 0.16459 0.53738 0.29913 0.55144 0.29886 0.0141 0 0.16007-0.23691 0.32466-0.52619 0.16459-0.2893 0.29913-0.53739 0.29886-0.55145 0-0.0141-0.23824-0.16007-0.5294-0.32465-0.29115-0.16459-0.53948-0.29887-0.55173-0.2986zm4.4936 2.5329-0.0577-0.0375-0.0665 0.11486c-0.0364 0.063-0.17948 0.31403-0.31774 0.55757l-0.25127 0.44271 0.54216 0.30844c0.29833 0.16938 0.55092 0.3079 0.56158 0.30764 0.0106-0.00027 0.15103-0.23452 0.3119-0.52036 0.16087-0.28583 0.29594-0.53499 0.30046-0.55388 0.005-0.0202-0.19091-0.14624-0.47861-0.30818-0.26775-0.15076-0.51266-0.29088-0.54427-0.31136z"/>
 </g>

</g>
</svg>